<svg width="28" height="28" viewBox="0 0 28 28" fill="none" xmlns="http://www.w3.org/2000/svg">
    <path d="M10.5 25.6668V21.0002H17.5V25.6668M9.33335 7.00016H9.34502M18.6667 7.00016H18.6784M14 7.00016H14.0117M14 11.6668H14.0117M14 16.3335H14.0117M18.6667 11.6668H18.6784M18.6667 16.3335H18.6784M9.33335 11.6668H9.34502M9.33335 16.3335H9.34502M7.00002 2.3335H21C22.2887 2.3335 23.3334 3.37817 23.3334 4.66683V23.3335C23.3334 24.6222 22.2887 25.6668 21 25.6668H7.00002C5.71136 25.6668 4.66669 24.6222 4.66669 23.3335V4.66683C4.66669 3.37817 5.71136 2.3335 7.00002 2.3335Z" stroke="black" stroke-width="2" stroke-linecap="round" stroke-linejoin="round"/>
</svg>