<svg width="165" height="151" viewBox="0 0 165 151" fill="none" xmlns="http://www.w3.org/2000/svg">
    <g clip-path="url(#clip0_14_107)">
        <path d="M142.002 14.5765L4.20032 54.7261L7.85027 67.2535L145.651 27.1039L142.002 14.5765Z" fill="#3F3D56"/>
        <path d="M20.6641 112.269L0.353304 42.5585C0.202725 42.0417 0.26363 41.4862 0.52261 41.0143C0.781591 40.5423 1.21743 40.1926 1.73427 40.042L136.195 0.865752C136.712 0.71568 137.267 0.776791 137.739 1.03568C138.21 1.29457 138.56 1.73008 138.711 2.24661L156.705 64.0052L156.148 64.1674L138.155 2.40886C138.046 2.04006 137.797 1.72916 137.46 1.54427C137.123 1.35938 136.726 1.31557 136.357 1.42245L1.89649 40.5987C1.52732 40.7063 1.216 40.9561 1.03102 41.2932C0.846031 41.6303 0.802527 42.0271 0.910078 42.3963L21.2209 112.107L20.6641 112.269Z" fill="#3F3D56"/>
        <path d="M126.944 64.292C126.536 64.2915 126.14 64.159 125.813 63.9142C125.487 63.6695 125.249 63.3256 125.134 62.9341L121.727 51.2419C121.588 50.762 121.645 50.2464 121.885 49.8084C122.126 49.3703 122.53 49.0455 123.01 48.9052L134.702 45.4985C135.182 45.3593 135.697 45.4162 136.135 45.6566C136.574 45.897 136.898 46.3014 137.039 46.781L140.445 58.4732C140.584 58.9531 140.528 59.4686 140.287 59.9067C140.047 60.3447 139.643 60.6696 139.163 60.8099L127.471 64.2165C127.3 64.2665 127.123 64.2919 126.944 64.292Z" fill="#6C63FF"/>
        <path d="M20.3499 42.7738C20.3149 42.6537 20.2733 42.5356 20.2252 42.4201C19.8983 41.6266 19.2897 40.982 18.5163 40.61C17.743 40.238 16.8594 40.1649 16.0355 40.4048C15.2115 40.6447 14.5053 41.1806 14.0524 41.9096C13.5996 42.6386 13.4322 43.5092 13.5823 44.3541C13.6033 44.4774 13.6314 44.5994 13.6664 44.7195C13.8781 45.4422 14.3183 46.077 14.921 46.5286C15.5236 46.9802 16.2564 47.2245 17.0096 47.2248C17.3384 47.2255 17.6656 47.1786 17.981 47.0856C18.8662 46.8269 19.6127 46.2277 20.0568 45.4195C20.5009 44.6112 20.6063 43.6597 20.3499 42.7738ZM17.8186 46.5289C17.0803 46.7431 16.2872 46.6559 15.6132 46.2862C14.9392 45.9166 14.4393 45.2948 14.2231 44.5571C14.1891 44.437 14.162 44.315 14.1418 44.1918C14.033 43.4956 14.1816 42.7837 14.5596 42.1891C14.9377 41.5945 15.5194 41.1579 16.1959 40.9611C16.8725 40.7642 17.5976 40.8205 18.2356 41.1195C18.8736 41.4184 19.3809 41.9395 19.6627 42.5854C19.7152 42.6988 19.7588 42.8161 19.7932 42.9362C20.0072 43.6745 19.9194 44.4675 19.5492 45.1411C19.179 45.8147 18.5565 46.3138 17.8186 46.5289Z" fill="#6C63FF"/>
        <path d="M11.8157 45.2592C11.6301 44.6219 11.6479 43.9426 11.8667 43.3159C12.0854 42.6893 12.4941 42.1464 13.0359 41.7631C12.5283 41.7383 12.0221 41.8352 11.5596 42.0457C11.097 42.2562 10.6914 42.5742 10.3766 42.9732C10.0619 43.3722 9.84695 43.8406 9.74986 44.3395C9.65276 44.8383 9.67627 45.3531 9.81843 45.8411C9.9606 46.329 10.2173 46.7759 10.5671 47.1445C10.917 47.5131 11.3499 47.7928 11.8297 47.9603C12.3095 48.1278 12.8224 48.1781 13.3256 48.1072C13.8289 48.0363 14.3079 47.8462 14.7228 47.5527C14.0598 47.5203 13.4235 47.282 12.9024 46.8709C12.3813 46.4598 12.0014 45.8964 11.8157 45.2592Z" fill="#6C63FF"/>
        <path d="M101.954 59.6298C101.892 59.4079 101.787 59.2004 101.645 59.019C101.503 58.8377 101.327 58.6861 101.126 58.573C100.926 58.4599 100.705 58.3875 100.476 58.3598C100.247 58.3322 100.015 58.3499 99.7936 58.412L80.543 63.7965L78.4698 64.3765H91.4891L93.5623 63.7965L100.739 61.79C101.186 61.6643 101.565 61.3663 101.793 60.9613C102.021 60.5562 102.079 60.0774 101.954 59.6298Z" fill="#CCCCCC"/>
        <path d="M88.3343 55.6079C88.2089 55.1604 87.9109 54.781 87.5057 54.5532C87.1006 54.3253 86.6216 54.2677 86.1741 54.393L57.2882 62.4713C56.8845 62.5857 56.535 62.8405 56.3027 63.1898C56.0703 63.5391 55.9704 63.9599 56.021 64.3764H63.4991L65.5751 63.7965L87.1194 57.7711C87.5671 57.645 87.9465 57.3464 88.1743 56.9408C88.4021 56.5352 88.4596 56.0559 88.3343 55.6079Z" fill="#CCCCCC"/>
        <path d="M162.699 63.7959H22.6475C22.1093 63.7965 21.5934 64.0105 21.2129 64.3911C20.8324 64.7716 20.6183 65.2875 20.6177 65.8256V148.755C20.6183 149.293 20.8323 149.809 21.2129 150.189C21.5934 150.57 22.1093 150.784 22.6475 150.784H162.699C163.237 150.784 163.753 150.57 164.134 150.189C164.514 149.809 164.728 149.293 164.729 148.755V65.8256C164.728 65.2875 164.514 64.7716 164.134 64.3911C163.753 64.0106 163.237 63.7965 162.699 63.7959ZM164.149 148.755C164.149 149.139 163.996 149.508 163.724 149.78C163.452 150.052 163.084 150.204 162.699 150.204H22.6475C22.263 150.204 21.8943 150.052 21.6225 149.78C21.3506 149.508 21.1978 149.139 21.1977 148.755V65.8256C21.1978 65.4412 21.3506 65.0725 21.6225 64.8006C21.8943 64.5288 22.263 64.376 22.6475 64.3758H162.699C163.084 64.376 163.452 64.5288 163.724 64.8006C163.996 65.0725 164.149 65.4412 164.149 65.8256V148.755Z" fill="#3F3D56"/>
        <path d="M36.2746 75.1046C35.5864 75.1046 34.9137 74.9005 34.3415 74.5182C33.7692 74.1358 33.3233 73.5924 33.0599 72.9566C32.7965 72.3208 32.7276 71.6212 32.8619 70.9462C32.9962 70.2713 33.3276 69.6513 33.8142 69.1646C34.3008 68.678 34.9208 68.3466 35.5958 68.2124C36.2707 68.0781 36.9703 68.147 37.6062 68.4104C38.242 68.6737 38.7854 69.1197 39.1677 69.6919C39.5501 70.2641 39.7541 70.9369 39.7541 71.625C39.7531 72.5476 39.3861 73.432 38.7338 74.0843C38.0815 74.7366 37.1971 75.1035 36.2746 75.1046ZM36.2746 68.7254C35.7011 68.7254 35.1405 68.8955 34.6636 69.2141C34.1868 69.5327 33.8152 69.9856 33.5957 70.5154C33.3762 71.0453 33.3188 71.6283 33.4307 72.1907C33.5426 72.7532 33.8187 73.2699 34.2243 73.6754C34.6298 74.0809 35.1464 74.3571 35.7089 74.469C36.2714 74.5808 36.8544 74.5234 37.3842 74.3039C37.9141 74.0845 38.3669 73.7128 38.6855 73.236C39.0041 72.7592 39.1742 72.1985 39.1742 71.625C39.1733 70.8563 38.8676 70.1193 38.324 69.5757C37.7804 69.0321 37.0433 68.7263 36.2746 68.7254Z" fill="#6C63FF"/>
        <path d="M30.8662 71.6251C30.8663 70.9614 31.0734 70.3142 31.4587 69.7738C31.844 69.2333 32.3883 68.8265 33.0157 68.6099C32.5353 68.4442 32.0222 68.3957 31.5192 68.4684C31.0162 68.5411 30.5379 68.7329 30.124 69.0279C29.7102 69.3229 29.3729 69.7125 29.1401 70.1643C28.9073 70.6161 28.7859 71.1169 28.7859 71.6251C28.7859 72.1333 28.9073 72.6342 29.1401 73.086C29.3729 73.5377 29.7102 73.9274 30.124 74.2224C30.5379 74.5174 31.0162 74.7092 31.5192 74.7819C32.0222 74.8546 32.5353 74.8061 33.0157 74.6403C32.3883 74.4238 31.844 74.017 31.4587 73.4765C31.0734 72.936 30.8663 72.2889 30.8662 71.6251Z" fill="#6C63FF"/>
        <path d="M50.3794 112.735C49.6875 112.734 49.0242 112.459 48.535 111.97C48.0458 111.481 47.7706 110.818 47.7698 110.126V102.297C47.7698 101.605 48.0447 100.941 48.5341 100.451C49.0235 99.962 49.6873 99.687 50.3794 99.687C51.0716 99.687 51.7353 99.962 52.2247 100.451C52.7141 100.941 52.9891 101.605 52.9891 102.297V110.126C52.9883 110.818 52.7131 111.481 52.2239 111.97C51.7346 112.459 51.0713 112.734 50.3794 112.735Z" fill="#6C63FF"/>
        <path d="M57.3385 112.735C56.6466 112.734 55.9833 112.459 55.494 111.97C55.0048 111.481 54.7296 110.818 54.7288 110.126V102.297C54.7288 101.605 55.0038 100.941 55.4932 100.451C55.9826 99.962 56.6463 99.687 57.3385 99.687C58.0306 99.687 58.6944 99.962 59.1838 100.451C59.6732 100.941 59.9481 101.605 59.9481 102.297V110.126C59.9473 110.818 59.6721 111.481 59.1829 111.97C58.6937 112.459 58.0303 112.734 57.3385 112.735Z" fill="#6C63FF"/>
        <path d="M64.2976 112.735C63.6057 112.734 62.9424 112.459 62.4532 111.97C61.9639 111.481 61.6887 110.818 61.6879 110.126V102.297C61.6879 101.605 61.9629 100.941 62.4523 100.451C62.9417 99.962 63.6055 99.687 64.2976 99.687C64.9897 99.687 65.6535 99.962 66.1429 100.451C66.6323 100.941 66.9072 101.605 66.9072 102.297V110.126C66.9064 110.818 66.6313 111.481 66.142 111.97C65.6528 112.459 64.9895 112.734 64.2976 112.735Z" fill="#6C63FF"/>
        <path d="M75.0262 112.735C74.3343 112.734 73.671 112.459 73.1817 111.97C72.6925 111.481 72.4173 110.818 72.4165 110.126V102.297C72.4165 101.605 72.6915 100.941 73.1809 100.451C73.6703 99.962 74.334 99.687 75.0262 99.687C75.7183 99.687 76.3821 99.962 76.8715 100.451C77.3609 100.941 77.6358 101.605 77.6358 102.297V110.126C77.635 110.818 77.3598 111.481 76.8706 111.97C76.3814 112.459 75.718 112.734 75.0262 112.735Z" fill="#6C63FF"/>
        <path d="M81.9853 112.735C81.2934 112.734 80.6301 112.459 80.1408 111.97C79.6516 111.481 79.3764 110.818 79.3756 110.126V102.297C79.3756 101.605 79.6506 100.941 80.14 100.451C80.6294 99.962 81.2931 99.687 81.9853 99.687C82.6774 99.687 83.3412 99.962 83.8306 100.451C84.32 100.941 84.5949 101.605 84.5949 102.297V110.126C84.5941 110.818 84.3189 111.481 83.8297 111.97C83.3405 112.459 82.6771 112.734 81.9853 112.735Z" fill="#6C63FF"/>
        <path d="M88.9443 112.735C88.2524 112.734 87.5891 112.459 87.0999 111.97C86.6107 111.481 86.3354 110.818 86.3347 110.126V102.297C86.3347 101.605 86.6096 100.941 87.099 100.451C87.5884 99.962 88.2522 99.687 88.9443 99.687C89.6364 99.687 90.3002 99.962 90.7896 100.451C91.279 100.941 91.554 101.605 91.554 102.297V110.126C91.5532 110.818 91.278 111.481 90.7887 111.97C90.2995 112.459 89.6362 112.734 88.9443 112.735Z" fill="#6C63FF"/>
        <path d="M99.6729 112.735C98.981 112.734 98.3177 112.459 97.8285 111.97C97.3392 111.481 97.064 110.818 97.0632 110.126V102.297C97.0632 101.605 97.3382 100.941 97.8276 100.451C98.317 99.962 98.9808 99.687 99.6729 99.687C100.365 99.687 101.029 99.962 101.518 100.451C102.008 100.941 102.283 101.605 102.283 102.297V110.126C102.282 110.818 102.007 111.481 101.517 111.97C101.028 112.459 100.365 112.734 99.6729 112.735Z" fill="#6C63FF"/>
        <path d="M106.632 112.735C105.94 112.734 105.277 112.459 104.788 111.97C104.298 111.481 104.023 110.818 104.022 110.126V102.297C104.022 101.605 104.297 100.941 104.787 100.451C105.276 99.962 105.94 99.687 106.632 99.687C107.324 99.687 107.988 99.962 108.477 100.451C108.967 100.941 109.242 101.605 109.242 102.297V110.126C109.241 110.818 108.966 111.481 108.476 111.97C107.987 112.459 107.324 112.734 106.632 112.735Z" fill="#6C63FF"/>
        <path d="M113.591 112.735C112.899 112.734 112.236 112.459 111.747 111.97C111.257 111.481 110.982 110.818 110.981 110.126V102.297C110.981 101.605 111.256 100.941 111.746 100.451C112.235 99.962 112.899 99.687 113.591 99.687C114.283 99.687 114.947 99.962 115.436 100.451C115.926 100.941 116.201 101.605 116.201 102.297V110.126C116.2 110.818 115.925 111.481 115.436 111.97C114.946 112.459 114.283 112.734 113.591 112.735Z" fill="#6C63FF"/>
        <path d="M124.32 112.735C123.628 112.734 122.964 112.459 122.475 111.97C121.986 111.481 121.711 110.818 121.71 110.126V102.297C121.71 101.605 121.985 100.941 122.474 100.451C122.964 99.962 123.628 99.687 124.32 99.687C125.012 99.687 125.676 99.962 126.165 100.451C126.654 100.941 126.929 101.605 126.929 102.297V110.126C126.929 110.818 126.653 111.481 126.164 111.97C125.675 112.459 125.012 112.734 124.32 112.735Z" fill="#6C63FF"/>
        <path d="M131.279 112.735C130.587 112.734 129.924 112.459 129.434 111.97C128.945 111.481 128.67 110.818 128.669 110.126V102.297C128.669 101.605 128.944 100.941 129.433 100.451C129.923 99.962 130.587 99.687 131.279 99.687C131.971 99.687 132.635 99.962 133.124 100.451C133.613 100.941 133.888 101.605 133.888 102.297V110.126C133.888 110.818 133.612 111.481 133.123 111.97C132.634 112.459 131.971 112.734 131.279 112.735Z" fill="#6C63FF"/>
        <path d="M138.238 112.735C137.546 112.734 136.883 112.459 136.393 111.97C135.904 111.481 135.629 110.818 135.628 110.126V102.297C135.628 101.605 135.903 100.941 136.393 100.451C136.882 99.962 137.546 99.687 138.238 99.687C138.93 99.687 139.594 99.962 140.083 100.451C140.573 100.941 140.847 101.605 140.847 102.297V110.126C140.847 110.818 140.571 111.481 140.082 111.97C139.593 112.459 138.93 112.734 138.238 112.735Z" fill="#6C63FF"/>
        <path d="M68.0723 141.78H30.5396C30.0745 141.78 29.6285 141.595 29.2997 141.266C28.9708 140.938 28.7861 140.492 28.7861 140.026C28.7861 139.561 28.9708 139.115 29.2997 138.787C29.6285 138.458 30.0745 138.273 30.5396 138.273H68.0723C68.5374 138.273 68.9834 138.458 69.3122 138.787C69.6411 139.115 69.8258 139.561 69.8258 140.026C69.8258 140.492 69.6411 140.938 69.3122 141.266C68.9834 141.595 68.5374 141.78 68.0723 141.78Z" fill="#E6E6E6"/>
        <path d="M56.0389 134.241H42.573C42.1079 134.241 41.6619 134.056 41.333 133.727C41.0042 133.398 40.8195 132.952 40.8195 132.487C40.8195 132.022 41.0042 131.576 41.333 131.247C41.6619 130.919 42.1079 130.734 42.573 130.734H56.0389C56.5039 130.734 56.9499 130.919 57.2788 131.247C57.6076 131.576 57.7924 132.022 57.7924 132.487C57.7924 132.952 57.6076 133.398 57.2788 133.727C56.9499 134.056 56.5039 134.241 56.0389 134.241Z" fill="#E6E6E6"/>
        <path d="M164.044 81.1299H21.0933V81.7098H164.044V81.1299Z" fill="#3F3D56"/>
    </g>
    <defs>
        <clipPath id="clip0_14_107">
            <rect width="164.458" height="150" fill="white" transform="translate(0.271118 0.78418)"/>
        </clipPath>
    </defs>
</svg>