<svg width="161" height="151" viewBox="0 0 161 151" fill="none" xmlns="http://www.w3.org/2000/svg">
    <g clip-path="url(#clip0_14_178)">
        <path d="M148.565 115.538L155.76 116.663C158.195 113.714 159.874 110.215 160.65 106.471C155.39 110.777 147.389 108.489 141.01 110.84C139.026 111.588 137.236 112.774 135.772 114.308C134.309 115.842 133.209 117.687 132.555 119.704L129.039 123.487C132.222 124.747 135.64 125.302 139.058 125.113C142.476 124.925 145.812 123.998 148.838 122.397C150.526 121.481 152.092 120.357 153.499 119.05C150.982 117.465 148.565 115.538 148.565 115.538Z" fill="#F2F2F2"/>
        <path d="M146.011 104.032L152.952 101.83C153.817 98.1045 153.759 94.2243 152.784 90.5264C149.996 96.727 141.814 98.2468 137.153 103.196C135.711 104.751 134.638 106.61 134.012 108.636C133.387 110.662 133.225 112.803 133.539 114.9L132.079 119.854C135.49 119.563 138.797 118.535 141.772 116.842C144.747 115.15 147.32 112.832 149.314 110.049C150.416 108.477 151.317 106.772 151.994 104.974C149.033 104.678 146.011 104.032 146.011 104.032Z" fill="#F2F2F2"/>
        <path d="M160.689 125.779C160.689 125.816 160.682 125.852 160.668 125.887C160.654 125.921 160.633 125.952 160.607 125.979C160.58 126.005 160.549 126.026 160.515 126.04C160.481 126.054 160.444 126.061 160.407 126.061H0.593374C0.518461 126.061 0.446615 126.031 0.393643 125.978C0.340672 125.925 0.310913 125.853 0.310913 125.779C0.310913 125.704 0.340672 125.632 0.393643 125.579C0.446615 125.526 0.518461 125.496 0.593374 125.496H160.407C160.444 125.496 160.481 125.503 160.515 125.517C160.549 125.532 160.58 125.552 160.607 125.579C160.633 125.605 160.654 125.636 160.668 125.67C160.682 125.705 160.689 125.741 160.689 125.779Z" fill="#CCCCCC"/>
        <path d="M66.5343 113.736C94.7189 113.736 117.567 90.8883 117.567 62.7037C117.567 34.519 94.7189 11.6709 66.5343 11.6709C38.3497 11.6709 15.5015 34.519 15.5015 62.7037C15.5015 90.8883 38.3497 113.736 66.5343 113.736Z" fill="#E6E6E6"/>
        <path d="M110.446 62.7039C110.451 69.5558 108.851 76.3135 105.773 82.4352C102.695 88.5568 98.2253 93.872 92.7224 97.9545C92.3545 98.2298 91.9795 98.498 91.6021 98.7591C84.2434 103.874 75.4961 106.616 66.5343 106.616C57.5725 106.616 48.8251 103.874 41.4665 98.7591C41.0891 98.498 40.7141 98.2298 40.3462 97.9545C34.8471 93.8684 30.3802 88.5525 27.3027 82.4317C24.2252 76.3108 22.6224 69.5549 22.6224 62.7039C22.6224 55.8529 24.2252 49.097 27.3027 42.9761C30.3802 36.8553 34.8471 31.5394 40.3462 27.4533C40.7141 27.178 41.0891 26.9098 41.4665 26.6487C48.8251 21.5336 57.5725 18.792 66.5343 18.792C75.4961 18.792 84.2434 21.5336 91.6021 26.6487C91.9795 26.9098 92.3545 27.178 92.7224 27.4533C98.2253 31.5358 102.695 36.851 105.773 42.9726C108.851 49.0943 110.451 55.852 110.446 62.7039Z" fill="#485AFF"/>
        <path d="M66.5343 102.818C88.6887 102.818 106.648 84.8584 106.648 62.704C106.648 40.5496 88.6887 22.5898 66.5343 22.5898C44.3799 22.5898 26.4202 40.5496 26.4202 62.704C26.4202 84.8584 44.3799 102.818 66.5343 102.818Z" fill="#6C63FF"/>
        <path opacity="0.2" d="M66.6389 22.7017C66.0308 22.7017 65.4264 22.7176 64.825 22.7443C74.9636 23.6353 84.3845 28.3468 91.1789 35.9244C97.9734 43.502 101.633 53.379 101.417 63.5544C101.201 73.7298 97.1257 83.4427 90.0158 90.7252C82.9059 98.0076 73.2936 102.315 63.1263 102.775C64.2841 102.876 65.4551 102.93 66.6389 102.93C77.2779 102.93 87.481 98.7036 95.0039 91.1808C102.527 83.6579 106.753 73.4547 106.753 62.8158C106.753 52.1769 102.527 41.9737 95.0039 34.4508C87.481 26.928 77.2779 22.7017 66.6389 22.7017Z" fill="black"/>
        <path d="M66.653 19.7412C66.3069 19.7418 65.9752 19.8796 65.7305 20.1243C65.4858 20.3689 65.3481 20.7006 65.3475 21.0467V26.7434C65.3475 27.0896 65.485 27.4217 65.7298 27.6665C65.9747 27.9113 66.3067 28.0489 66.653 28.0489C66.9992 28.0489 67.3313 27.9113 67.5761 27.6665C67.8209 27.4217 67.9585 27.0896 67.9585 26.7434V21.0467C67.9578 20.7006 67.8201 20.3689 67.5754 20.1243C67.3307 19.8796 66.999 19.7418 66.653 19.7412Z" fill="#485AFF"/>
        <path d="M92.7224 27.4529C92.3545 27.1776 91.9795 26.9094 91.6021 26.6483C91.3756 26.6335 91.1492 26.6781 90.9453 26.7776C90.7413 26.877 90.5668 27.028 90.439 27.2156L87.2322 31.9224C87.0374 32.2086 86.9642 32.5604 87.0288 32.9005C87.0933 33.2405 87.2903 33.5411 87.5764 33.7359C87.8625 33.9307 88.2143 34.0039 88.5544 33.9394C88.8945 33.8748 89.195 33.6778 89.3899 33.3917L92.5966 28.6848C92.7186 28.5063 92.7941 28.3 92.816 28.0849C92.838 27.8697 92.8058 27.6525 92.7224 27.4529Z" fill="#485AFF"/>
        <path d="M107.292 48.9156C107.227 48.7569 107.132 48.6125 107.012 48.4905C106.891 48.3686 106.748 48.2716 106.59 48.205C106.433 48.1385 106.263 48.1036 106.092 48.1026C105.921 48.1015 105.751 48.1342 105.592 48.1988L100.313 50.3421C99.9928 50.4727 99.7373 50.7251 99.6029 51.0439C99.4684 51.3627 99.4661 51.7218 99.5963 52.0424C99.7265 52.3629 99.9787 52.6187 100.297 52.7534C100.616 52.8881 100.975 52.8908 101.296 52.7609L106.575 50.6175C106.895 50.4863 107.15 50.2335 107.285 49.9146C107.419 49.5956 107.422 49.2364 107.292 48.9156Z" fill="#485AFF"/>
        <path d="M45.8363 31.9225L42.6296 27.2156C42.5018 27.028 42.3273 26.877 42.1233 26.7776C41.9194 26.6781 41.693 26.6335 41.4665 26.6483C41.0891 26.9094 40.7141 27.1776 40.3462 27.4529C40.2628 27.6525 40.2306 27.8697 40.2526 28.0849C40.2745 28.3 40.35 28.5063 40.472 28.6848L43.6787 33.3917C43.8736 33.6778 44.1741 33.8748 44.5142 33.9394C44.8543 34.0039 45.2061 33.9307 45.4922 33.7359C45.7783 33.5411 45.9753 33.2405 46.0398 32.9005C46.1044 32.5604 46.0312 32.2086 45.8363 31.9225Z" fill="#485AFF"/>
        <path d="M32.7553 50.3418L27.4764 48.1984C27.1557 48.0682 26.7964 48.0707 26.4775 48.2054C26.1586 48.34 25.9062 48.5958 25.7759 48.9165C25.6456 49.2372 25.6481 49.5966 25.7827 49.9155C25.9173 50.2344 26.173 50.4868 26.4937 50.6172L31.7726 52.7605C32.0933 52.8905 32.4525 52.8878 32.7711 52.7531C33.0898 52.6183 33.342 52.3626 33.4722 52.0421C33.6025 51.7215 33.6001 51.3624 33.4657 51.0436C33.3313 50.7247 33.0758 50.4724 32.7553 50.3418Z" fill="#485AFF"/>
        <path d="M66.653 97.3584C66.3069 97.359 65.9752 97.4967 65.7305 97.7414C65.4858 97.9861 65.3481 98.3178 65.3475 98.6639V104.361C65.3475 104.707 65.485 105.039 65.7298 105.284C65.9747 105.529 66.3067 105.666 66.653 105.666C66.9992 105.666 67.3313 105.529 67.5761 105.284C67.8209 105.039 67.9585 104.707 67.9585 104.361V98.6639C67.9578 98.3178 67.8201 97.9861 67.5754 97.7414C67.3307 97.4967 66.999 97.359 66.653 97.3584Z" fill="#485AFF"/>
        <path d="M92.5966 96.7223L89.3898 92.0154C89.2934 91.8737 89.1699 91.7524 89.0266 91.6585C88.8832 91.5645 88.7228 91.4997 88.5544 91.4677C88.386 91.4358 88.213 91.4373 88.0452 91.4722C87.8773 91.5071 87.7181 91.5747 87.5764 91.6712C87.4347 91.7677 87.3134 91.8911 87.2195 92.0345C87.1255 92.1778 87.0607 92.3383 87.0287 92.5066C86.9968 92.675 86.9983 92.8481 87.0332 93.0159C87.0681 93.1837 87.1357 93.343 87.2322 93.4847L90.439 98.1915C90.5668 98.3791 90.7412 98.53 90.9452 98.6295C91.1492 98.729 91.3756 98.7736 91.602 98.7588C91.9795 98.4977 92.3545 98.2295 92.7224 97.9542C92.8058 97.7546 92.838 97.5374 92.816 97.3222C92.794 97.1071 92.7186 96.9008 92.5966 96.7223Z" fill="#485AFF"/>
        <path d="M106.575 74.7901L101.296 72.6467C100.975 72.5165 100.616 72.5189 100.297 72.6536C99.9781 72.7883 99.7257 73.0441 99.5955 73.3648C99.4652 73.6855 99.4676 74.0448 99.6022 74.3637C99.7368 74.6826 99.9926 74.935 100.313 75.0654L105.592 77.2088C105.913 77.3387 106.272 77.336 106.591 77.2013C106.909 77.0666 107.162 76.8108 107.292 76.4903C107.422 76.1697 107.42 75.8106 107.285 75.4918C107.151 75.173 106.895 74.9206 106.575 74.7901Z" fill="#485AFF"/>
        <path d="M45.4922 91.6716C45.206 91.4768 44.8542 91.4037 44.5142 91.4682C44.1741 91.5328 43.8736 91.7297 43.6787 92.0158L40.472 96.7226C40.35 96.9012 40.2745 97.1075 40.2526 97.3226C40.2306 97.5378 40.2628 97.755 40.3462 97.9545C40.7141 98.2299 41.0891 98.4981 41.4665 98.7592C41.693 98.774 41.9194 98.7294 42.1233 98.6299C42.3273 98.5304 42.5018 98.3794 42.6296 98.1919L45.8363 93.485C45.9328 93.3434 46.0005 93.1841 46.0354 93.0163C46.0703 92.8484 46.0718 92.6754 46.0399 92.507C46.0079 92.3386 45.9431 92.1781 45.8491 92.0348C45.7551 91.8915 45.6338 91.768 45.4922 91.6716Z" fill="#485AFF"/>
        <path d="M33.4722 73.3638C33.4077 73.2051 33.3126 73.0607 33.1923 72.9388C33.072 72.8169 32.9288 72.7198 32.771 72.6533C32.6131 72.5867 32.4437 72.5519 32.2725 72.5508C32.1012 72.5497 31.9313 72.5824 31.7727 72.647L26.4938 74.7904C26.1733 74.9209 25.9178 75.1733 25.7834 75.4921C25.649 75.8109 25.6466 76.1701 25.7768 76.4906C25.9071 76.8112 26.1592 77.0669 26.4779 77.2016C26.7966 77.3364 27.1558 77.339 27.4764 77.2091L32.7554 75.0657C33.0756 74.9345 33.3309 74.6818 33.4653 74.3628C33.5996 74.0439 33.6021 73.6846 33.4722 73.3638Z" fill="#485AFF"/>
        <path d="M68.3469 62.0561C68.4674 62.7697 68.3 63.502 67.8813 64.0923C67.4626 64.6826 66.8269 65.0827 66.1136 65.2049L42.9475 69.1454C42.5941 69.2055 42.2324 69.1954 41.8829 69.1157C41.5334 69.036 41.203 68.8883 40.9106 68.6809C40.6182 68.4735 40.3696 68.2106 40.1788 67.9071C39.988 67.6036 39.8589 67.2655 39.7988 66.9121C39.7387 66.5587 39.7488 66.197 39.8285 65.8475C39.9082 65.498 40.0559 65.1676 40.2633 64.8752C40.4707 64.5828 40.7336 64.3341 41.0371 64.1434C41.3406 63.9526 41.6787 63.8235 42.0321 63.7634L65.1981 59.8229C65.9117 59.7023 66.644 59.8697 67.2343 60.2884C67.8246 60.7071 68.2247 61.3428 68.3469 62.0561Z" fill="#3F3D56"/>
        <path d="M92.7285 87.722C92.3957 88.0567 91.9437 88.2457 91.4718 88.2476C90.9998 88.2494 90.5463 88.064 90.2109 87.7319L65.273 62.9896C64.9383 62.6569 64.7494 62.205 64.7478 61.7332C64.7461 61.2613 64.9319 60.8081 65.2642 60.4732C65.5966 60.1382 66.0483 59.9489 66.5202 59.9468C66.992 59.9447 67.4454 60.1301 67.7806 60.4621L92.7186 85.2044C93.0533 85.5372 93.2423 85.9892 93.2442 86.4612C93.246 86.9331 93.0606 87.3866 92.7285 87.722Z" fill="#3F3D56"/>
        <path d="M66.5343 65.7896C68.2385 65.7896 69.62 64.4081 69.62 62.7039C69.62 60.9997 68.2385 59.6182 66.5343 59.6182C64.8301 59.6182 63.4486 60.9997 63.4486 62.7039C63.4486 64.4081 64.8301 65.7896 66.5343 65.7896Z" fill="#CCCCCC"/>
        <path d="M45.28 9.19723C40.5435 16.6439 33.3166 21.5858 24.4041 24.8323C24.228 24.9643 24.0276 25.0602 23.8144 25.1146C23.6012 25.1691 23.3794 25.181 23.1616 25.1498C22.9438 25.1185 22.7343 25.0447 22.545 24.9324C22.3558 24.8202 22.1905 24.6718 22.0586 24.4957C17.2174 18.0317 18.3105 8.79346 24.6999 3.85426C26.2446 2.6622 28.0107 1.78886 29.8957 1.28495C31.7808 0.781037 33.7471 0.656582 35.6806 0.918814C37.6141 1.18105 39.4762 1.82474 41.1589 2.81252C42.8416 3.80031 44.3113 5.11251 45.4828 6.67295L45.6167 6.85173C45.7486 7.02785 45.8445 7.22822 45.8989 7.4414C45.9534 7.65459 45.9653 7.87641 45.9341 8.09421C45.9028 8.31201 45.829 8.52152 45.7167 8.71078C45.6045 8.90003 45.4561 9.06533 45.28 9.19723Z" fill="#E6E6E6"/>
        <path d="M87.5858 6.67295C88.7572 5.11251 90.2269 3.80031 91.9096 2.81252C93.5923 1.82474 95.4545 1.18105 97.388 0.918815C99.3215 0.656583 101.288 0.781034 103.173 1.28495C105.058 1.78886 106.824 2.6622 108.369 3.85425C114.758 8.79346 115.851 18.0317 111.01 24.4957C110.878 24.6718 110.713 24.8202 110.524 24.9324C110.334 25.0447 110.125 25.1185 109.907 25.1498C109.689 25.181 109.467 25.1691 109.254 25.1146C109.041 25.0602 108.841 24.9642 108.664 24.8323C100.391 21.6647 93.6057 16.183 87.7886 9.19723C87.4329 8.93084 87.1976 8.53407 87.1345 8.0942C87.0713 7.65433 87.1855 7.2074 87.4519 6.85172L87.5858 6.67295Z" fill="#E6E6E6"/>
        <path d="M85.5097 106.917C85.208 107.086 84.9859 107.369 84.8918 107.702C84.7978 108.035 84.8396 108.391 85.008 108.694L92.5423 122.157C92.7114 122.459 92.9936 122.682 93.3268 122.776C93.66 122.87 94.0168 122.828 94.3189 122.659C94.621 122.49 94.8436 122.208 94.9377 121.875C95.0318 121.541 94.9898 121.185 94.8208 120.882L87.2865 107.419C87.117 107.117 86.8348 106.895 86.5018 106.801C86.1687 106.707 85.812 106.748 85.5097 106.917Z" fill="#E6E6E6"/>
        <path d="M45.7821 107.418L38.2478 120.882C38.0788 121.184 38.0367 121.541 38.1308 121.874C38.225 122.207 38.4475 122.489 38.7496 122.659C39.0517 122.828 39.4086 122.87 39.7418 122.776C40.075 122.682 40.3571 122.459 40.5263 122.157L48.0606 108.693C48.1443 108.544 48.1978 108.379 48.2179 108.209C48.2381 108.038 48.2244 107.866 48.1779 107.701C48.1313 107.536 48.0527 107.382 47.9465 107.247C47.8403 107.112 47.7086 107 47.559 106.916C47.4094 106.833 47.2447 106.779 47.0744 106.759C46.9041 106.739 46.7316 106.753 46.5665 106.799C46.4015 106.846 46.2473 106.924 46.1127 107.031C45.9781 107.137 45.8658 107.269 45.7821 107.418Z" fill="#E6E6E6"/>
        <path d="M94.0683 125.604C96.2968 125.604 98.1034 123.798 98.1034 121.569C98.1034 119.341 96.2968 117.534 94.0683 117.534C91.8397 117.534 90.0331 119.341 90.0331 121.569C90.0331 123.798 91.8397 125.604 94.0683 125.604Z" fill="#E6E6E6"/>
        <path d="M96.9166 22.352C99.1451 22.352 100.952 20.5454 100.952 18.3169C100.952 16.0883 99.1451 14.2817 96.9166 14.2817C94.688 14.2817 92.8814 16.0883 92.8814 18.3169C92.8814 20.5454 94.688 22.352 96.9166 22.352Z" fill="#E6E6E6"/>
        <path d="M66.2969 12.8579C68.5255 12.8579 70.3321 11.0513 70.3321 8.82275C70.3321 6.5942 68.5255 4.7876 66.2969 4.7876C64.0684 4.7876 62.2618 6.5942 62.2618 8.82275C62.2618 11.0513 64.0684 12.8579 66.2969 12.8579Z" fill="#E6E6E6"/>
        <path d="M37.1014 21.8774C39.33 21.8774 41.1366 20.0708 41.1366 17.8423C41.1366 15.6137 39.33 13.8071 37.1014 13.8071C34.8729 13.8071 33.0663 15.6137 33.0663 17.8423C33.0663 20.0708 34.8729 21.8774 37.1014 21.8774Z" fill="#E6E6E6"/>
        <path d="M39.7124 125.604C41.9409 125.604 43.7475 123.798 43.7475 121.569C43.7475 119.341 41.9409 117.534 39.7124 117.534C37.4838 117.534 35.6772 119.341 35.6772 121.569C35.6772 123.798 37.4838 125.604 39.7124 125.604Z" fill="#E6E6E6"/>
        <path d="M90.9031 85.4528C91.0621 85.7018 91.2739 85.913 91.5234 86.0714C91.7729 86.2297 92.054 86.3315 92.3471 86.3694C92.6402 86.4074 92.938 86.3806 93.2196 86.291C93.5012 86.2014 93.7598 86.0511 93.977 85.8508L100.309 89.2435L99.9692 85.5261L94.0085 82.8742C93.6478 82.5316 93.1739 82.3332 92.6766 82.3166C92.1794 82.3 91.6933 82.4663 91.3105 82.7842C90.9277 83.102 90.6748 83.5492 90.5997 84.0411C90.5246 84.5329 90.6326 85.0352 90.9031 85.4528Z" fill="#FFB7B7"/>
        <path d="M95.5165 86.7503L97.9978 83.3252L109.951 88.976L124.826 86.185C125.561 86.047 126.318 86.0727 127.042 86.26C127.766 86.4474 128.44 86.7919 129.017 87.2691C129.593 87.7462 130.057 88.3444 130.376 89.0211C130.695 89.6978 130.861 90.4364 130.862 91.1844C130.863 92.5356 130.328 93.832 129.375 94.7892C128.421 95.7464 127.126 96.2862 125.775 96.2902L108.729 96.3218L95.5165 86.7503Z" fill="#3F3D56"/>
        <path d="M91.6949 145.907L89.1844 144.706L92.633 134.213L96.338 135.985L91.6949 145.907Z" fill="#FFB7B7"/>
        <path d="M108.525 144.215C108.343 144.329 108.16 144.442 107.976 144.554C107.609 144.779 107.238 145.001 106.868 145.218C106.681 145.327 106.493 145.436 106.307 145.543V145.548L106.296 145.55L106.292 145.552L106.008 145.622L105.601 144.545L105.413 144.049L105.147 143.347L104.66 142.061L102.097 135.294L106.082 134.311L106.231 134.921H106.233L106.307 135.224L107.699 140.87L107.983 142.025L107.992 142.06L108.164 142.749L108.311 143.347L108.476 144.014L108.525 144.215Z" fill="#FFB7B7"/>
        <path d="M132.297 120.449C132.044 120.855 131.786 121.259 131.526 121.659C131.043 122.404 130.547 123.138 130.038 123.861C130.038 123.862 130.036 123.862 130.034 123.864C129.737 124.139 129.409 124.379 129.057 124.578C129.042 124.589 129.025 124.596 129.011 124.606C128.751 124.749 128.475 124.86 128.188 124.936C128.085 124.961 127.98 124.987 127.877 125.013C127.504 125.102 127.135 125.177 126.768 125.244C126.116 125.36 125.47 125.443 124.828 125.494C124.777 125.5 124.725 125.504 124.674 125.507C122.035 125.701 119.466 125.389 116.785 124.879C115.461 124.628 114.109 124.327 112.71 124.016C112.252 123.912 111.793 123.811 111.329 123.709C111.294 123.702 111.257 123.693 111.22 123.685C110.556 123.54 109.881 123.396 109.19 123.254C108.319 123.075 107.421 122.902 106.488 122.738L106.554 124.052C106.61 125.064 106.82 126.061 107.178 127.008C107.576 128.174 107.891 129.096 107.226 131.015L106.905 131.945C107.071 132.406 107.128 132.9 107.072 133.387C107.015 133.875 106.846 134.342 106.578 134.753L106.514 134.851L109.19 141.62L109.363 142.059H107.993L106.307 142.061H103.451L99.3297 133.792L99.1324 133.398V133.378L99.5583 117.488C99.5639 117.348 99.5749 117.206 99.5934 117.065C99.6685 116.428 99.8697 115.813 100.185 115.254C100.501 114.696 100.925 114.206 101.432 113.813C101.918 113.433 102.474 113.154 103.069 112.991C103.664 112.828 104.285 112.785 104.897 112.865L106.307 113.047L109.19 113.42L111.22 113.684L111.26 113.689L117.248 114.464L117.677 112.712L117.757 112.682L120.278 111.758L128.996 108.563L129.018 108.555L129.592 108.345L129.66 108.456C129.68 108.489 129.7 108.522 129.719 108.555C130.286 109.572 130.747 110.643 131.096 111.753C131.683 113.566 132.167 115.411 132.544 117.279C132.56 117.361 132.575 117.434 132.588 117.501L132.594 117.521C132.599 117.552 132.603 117.573 132.605 117.578C132.806 118.415 132.666 119.437 132.297 120.449Z" fill="#2F2E41"/>
        <path d="M132.665 114.594C132.637 114.476 132.602 114.356 132.565 114.24C132.272 113.36 131.931 112.497 131.544 111.654C131.108 110.696 130.587 109.668 129.965 108.557C129.665 108.018 129.341 107.458 128.995 106.877C128.822 106.585 128.642 106.288 128.455 105.986C128.448 105.972 128.44 105.959 128.431 105.945L128.377 105.857L119.751 107.011L116.539 107.441L116.347 109.042L116.301 109.438C116.299 109.438 116.299 109.438 116.301 109.44L116.172 110.52V110.522L116 111.95L115.986 111.948L111.219 111.33L106.307 110.694L103.668 110.353C103.056 110.273 102.435 110.316 101.84 110.478C101.245 110.641 100.689 110.921 100.203 111.3C99.696 111.693 99.2723 112.184 98.9567 112.742C98.641 113.3 98.4397 113.916 98.3645 114.553C98.3479 114.682 98.3368 114.815 98.3313 114.946L95.8419 120.845C94.3522 124.373 93.4036 128.105 93.0279 131.916L91.2024 137.753L91.4624 137.777L95.3311 138.136L96.3526 138.232L98.6023 134.948C98.8586 134.574 99.102 134.188 99.3289 133.794C99.7023 133.149 100.034 132.481 100.323 131.795L105.189 120.214C105.565 120.279 105.938 120.34 106.307 120.399C108.012 120.675 109.65 120.901 111.219 121.075C116.321 121.645 120.74 121.69 124.673 121.206C125.777 121.072 126.845 120.895 127.876 120.675C128.254 120.596 128.627 120.511 128.995 120.419C129.082 120.399 129.167 120.378 129.251 120.356C130.014 120.16 130.714 119.775 131.289 119.238C131.864 118.701 132.295 118.028 132.543 117.281C132.839 116.415 132.881 115.483 132.665 114.594Z" fill="#2F2E41"/>
        <path d="M92.4968 144.194L89.7806 142.892L89.3547 142.687L88.6742 144.358L83.9241 145.403C83.6892 145.455 83.477 145.58 83.3184 145.761C83.1597 145.941 83.0631 146.168 83.0425 146.408C83.0219 146.647 83.0784 146.887 83.2039 147.092C83.3293 147.297 83.5171 147.457 83.7397 147.548L88.381 149.442L89.8544 148.116L89.493 149.895L91.2411 150.609L93.157 144.511L92.4968 144.194Z" fill="#2F2E41"/>
        <path d="M109.189 141.621L109.363 142.059H109.189V141.621Z" fill="#2F2E41"/>
        <path d="M108.244 142.153L105.397 143.139L104.951 143.294L105.643 144.959L103.003 149.045C102.872 149.247 102.81 149.485 102.824 149.725C102.839 149.965 102.929 150.194 103.083 150.379C103.237 150.563 103.446 150.694 103.68 150.752C103.913 150.809 104.159 150.79 104.381 150.698L109.012 148.778L109.126 146.799L110.121 148.318L111.865 147.595L108.936 141.914L108.244 142.153Z" fill="#2F2E41"/>
        <path d="M131.955 117.265C131.786 117.265 131.62 117.223 131.47 117.145L116.451 109.297L116.278 108.587L115.95 106.338L115.955 106.317L117.383 99.7321C117.357 99.6755 117.302 99.5828 117.241 99.478C116.603 98.3976 114.662 95.1093 118.366 90.5816L124.869 83.0004L130.45 82.7603L130.513 82.8405C132.006 84.7135 133.012 86.9263 133.443 89.282C133.874 91.6377 133.717 94.0635 132.984 96.3436L132.403 106.839L133.026 108.959C133.391 110.204 133.331 111.536 132.855 112.743L132.998 116.175C133.004 116.316 132.981 116.456 132.931 116.588C132.881 116.72 132.805 116.84 132.708 116.942C132.61 117.043 132.494 117.124 132.364 117.18C132.235 117.235 132.096 117.264 131.955 117.265Z" fill="#3F3D56"/>
        <path d="M118.927 125.921C119.181 125.771 119.4 125.566 119.567 125.323C119.734 125.079 119.845 124.801 119.893 124.51C119.941 124.218 119.925 123.92 119.845 123.635C119.766 123.35 119.624 123.087 119.432 122.863L123.043 116.653L119.316 116.863L116.458 122.728C116.103 123.076 115.888 123.543 115.854 124.039C115.821 124.536 115.97 125.027 116.274 125.421C116.579 125.815 117.017 126.083 117.506 126.175C117.995 126.267 118.5 126.177 118.927 125.921Z" fill="#FFB7B7"/>
        <path d="M120.384 121.355L117.047 118.757L123.111 107.007L120.839 92.044C120.726 91.3044 120.778 90.5491 120.991 89.8318C121.203 89.1145 121.571 88.4528 122.068 87.8936C122.565 87.3344 123.179 86.8915 123.866 86.5963C124.553 86.3011 125.297 86.1608 126.045 86.1854C127.395 86.2313 128.672 86.8111 129.596 87.7975C130.519 88.7839 131.014 90.0963 130.971 91.4468L130.409 108.484L120.384 121.355Z" fill="#3F3D56"/>
        <path d="M121.289 79.8505V74.3278C121.288 72.3652 122.066 70.4824 123.453 69.0937C124.84 67.705 126.722 66.9241 128.684 66.9229C130.647 66.9216 132.53 67.7001 133.918 69.087C135.307 70.4739 136.088 72.3557 136.089 74.3183V74.3278C137.394 77.0458 136.578 78.3379 136.089 79.8505C136.089 80.1139 135.984 80.3664 135.798 80.5526C135.611 80.7388 135.359 80.8437 135.096 80.8441H122.283C122.019 80.8438 121.767 80.739 121.58 80.5528C121.394 80.3665 121.289 80.114 121.289 79.8505Z" fill="#2F2E41"/>
        <path d="M126.263 80.4849C129.322 80.4849 131.802 78.0049 131.802 74.9456C131.802 71.8863 129.322 69.4062 126.263 69.4062C123.203 69.4062 120.723 71.8863 120.723 74.9456C120.723 78.0049 123.203 80.4849 126.263 80.4849Z" fill="#FFB7B7"/>
        <path d="M132.06 76.398C132.01 76.39 131.959 76.3794 131.909 76.3715C131.045 76.2183 130.181 76.0677 129.32 75.9117L129.24 73.9591L128.197 75.7083C125.816 76.4983 123.588 76.0518 121.493 75.0662C120.802 74.7381 120.131 74.3684 119.485 73.9591C119.661 72.8791 120.076 71.8521 120.7 70.9533C121.324 70.0545 122.141 69.3065 123.092 68.7642C123.171 68.7192 123.248 68.6796 123.327 68.6399L123.328 68.6398L123.329 68.6392L123.329 68.6383L123.329 68.6373C123.464 68.5739 123.602 68.5131 123.739 68.4576C124.815 68.0372 125.988 67.9308 127.121 68.1506C128.255 68.3705 129.303 68.9076 130.144 69.6995C131.835 71.314 132.596 73.9802 132.06 76.398Z" fill="#2F2E41"/>
    </g>
    <defs>
        <clipPath id="clip0_14_178">
            <rect width="160.378" height="150" fill="white" transform="translate(0.310913 0.78418)"/>
        </clipPath>
    </defs>
</svg>