<svg width="24" height="25" viewBox="0 0 24 25" fill="none" xmlns="http://www.w3.org/2000/svg">
    <path d="M2.06202 13.0041C1.97868 12.7796 1.97868 12.5326 2.06202 12.3081C2.87372 10.34 4.25153 8.65716 6.02079 7.47302C7.79004 6.28888 9.87106 5.65674 12 5.65674C14.129 5.65674 16.21 6.28888 17.9792 7.47302C19.7485 8.65716 21.1263 10.34 21.938 12.3081C22.0214 12.5326 22.0214 12.7796 21.938 13.0041C21.1263 14.9723 19.7485 16.6551 17.9792 17.8392C16.21 19.0234 14.129 19.6555 12 19.6555C9.87106 19.6555 7.79004 19.0234 6.02079 17.8392C4.25153 16.6551 2.87372 14.9723 2.06202 13.0041Z" stroke="black" stroke-opacity="0.5" stroke-width="2" stroke-linecap="round" stroke-linejoin="round"/>
    <path d="M12 15.6561C13.6569 15.6561 15 14.313 15 12.6561C15 10.9993 13.6569 9.65612 12 9.65612C10.3432 9.65612 9.00002 10.9993 9.00002 12.6561C9.00002 14.313 10.3432 15.6561 12 15.6561Z" stroke="black" stroke-opacity="0.5" stroke-width="2" stroke-linecap="round" stroke-linejoin="round"/>
</svg>