<svg width="149" height="151" viewBox="0 0 149 151" fill="none" xmlns="http://www.w3.org/2000/svg">
    <g clip-path="url(#clip0_14_65)">
        <path d="M37.6125 144.726C37.4482 144.733 37.2856 144.69 37.1466 144.602C37.0077 144.514 36.8991 144.385 36.8357 144.234C36.7722 144.082 36.757 143.914 36.7919 143.754C36.8269 143.593 36.9104 143.447 37.0312 143.335C37.0514 143.255 37.0659 143.197 37.0862 143.117C36.9289 142.717 36.656 142.374 36.3024 142.131C35.9487 141.887 35.5305 141.755 35.1013 141.751C34.6721 141.747 34.2514 141.871 33.8933 142.108C33.5351 142.345 33.2557 142.683 33.091 143.079C32.1404 145.304 30.91 147.608 31.5219 150.059C27.4803 141.493 28.8548 130.838 34.8277 123.513C36.4787 122.603 37.8168 120.988 38.1652 119.111C37.3481 119.388 36.3294 118.724 36.9437 117.863C37.21 117.534 37.4789 117.208 37.7451 116.879C34.6413 113.573 30.9432 118.768 34.3596 123.23C33.242 124.631 32.2739 126.145 31.4712 127.748C31.6566 126.046 31.4353 124.325 30.8256 122.725C30.2077 121.235 29.0496 119.979 28.0296 118.691C26.7896 117.12 24.2374 117.845 24.0705 119.837C25.2149 120.214 25.3636 121.867 24.0545 122.093C24.3974 125.8 26.8191 129.206 30.1545 130.832C28.9227 134.288 28.4418 137.967 28.7436 141.623C28.1549 137.35 23.5677 136.313 20.3615 134.614C20.1575 134.484 19.9197 134.415 19.6773 134.417C19.4349 134.419 19.1983 134.491 18.9964 134.625C18.7944 134.759 18.6359 134.949 18.5401 135.172C18.4443 135.395 18.4153 135.641 18.4568 135.879C18.8993 136.059 19.3229 136.283 19.7212 136.546C19.9079 136.672 20.0512 136.852 20.1314 137.062C20.2117 137.272 20.225 137.502 20.1695 137.72C20.114 137.938 19.9925 138.134 19.8216 138.28C19.6506 138.426 19.4387 138.516 19.2147 138.537C20.8309 142.537 25.0092 145.222 29.3006 145.207C29.713 146.999 30.3106 148.744 31.0836 150.412H37.4529C37.4758 150.342 37.4963 150.269 37.5168 150.198C36.9273 150.235 36.3354 150.2 35.7544 150.093C37.3142 148.246 38.5205 147.304 37.6127 144.726L37.6125 144.726Z" fill="#F2F2F2"/>
        <path d="M94.3963 144.726C94.5606 144.733 94.7232 144.69 94.8622 144.602C95.0011 144.514 95.1097 144.385 95.1731 144.234C95.2366 144.082 95.2518 143.914 95.2169 143.754C95.1819 143.593 95.0984 143.447 94.9776 143.335C94.9574 143.255 94.9429 143.197 94.9226 143.117C95.0799 142.717 95.3528 142.374 95.7064 142.131C96.06 141.887 96.4783 141.755 96.9075 141.751C97.3367 141.747 97.7574 141.871 98.1155 142.108C98.4737 142.345 98.7531 142.683 98.9178 143.079C99.8684 145.304 101.099 147.608 100.487 150.059C104.528 141.493 103.154 130.838 97.1811 123.513C95.5301 122.603 94.192 120.988 93.8436 119.111C94.6607 119.388 95.6794 118.724 95.0651 117.863C94.7988 117.534 94.5299 117.208 94.2637 116.879C97.3675 113.573 101.066 118.768 97.6492 123.23C98.7668 124.631 99.7349 126.145 100.538 127.748C100.352 126.046 100.573 124.325 101.183 122.725C101.801 121.235 102.959 119.979 103.979 118.691C105.219 117.12 107.771 117.845 107.938 119.837C106.794 120.214 106.645 121.867 107.954 122.093C107.611 125.8 105.19 129.206 101.854 130.832C103.086 134.288 103.567 137.967 103.265 141.623C103.854 137.35 108.441 136.313 111.647 134.614C111.851 134.484 112.089 134.415 112.331 134.417C112.574 134.419 112.811 134.491 113.012 134.625C113.214 134.759 113.373 134.949 113.469 135.172C113.565 135.395 113.593 135.641 113.552 135.879C113.109 136.059 112.686 136.283 112.288 136.546C112.101 136.672 111.958 136.852 111.877 137.062C111.797 137.272 111.784 137.502 111.839 137.72C111.895 137.938 112.016 138.134 112.187 138.28C112.358 138.426 112.57 138.516 112.794 138.537C111.178 142.537 107 145.222 102.708 145.207C102.296 146.999 101.698 148.744 100.925 150.412H94.5559C94.533 150.342 94.5125 150.269 94.4919 150.198C95.0815 150.235 95.6734 150.2 96.2544 150.093C94.6946 148.246 93.4885 147.304 94.3963 144.726Z" fill="#F2F2F2"/>
        <path d="M96.7579 145.672L94.015 146.295L90.3024 136.012L94.3508 135.091L96.7579 145.672Z" fill="#FFB6B6"/>
        <path d="M97.5057 148.511L89.0707 150.43L89.0464 150.323C88.8483 149.452 89.0042 148.539 89.4798 147.783C89.9554 147.027 90.7117 146.491 91.5824 146.293L92.8574 144.773L95.9981 145.288L96.7344 145.121L97.5057 148.511Z" fill="#2F2E41"/>
        <path d="M141.007 95.5479L142.514 97.9225L134.072 104.869L131.847 101.364L141.007 95.5479Z" fill="#FFB6B6"/>
        <path d="M143.431 93.8911L148.068 101.194L147.976 101.252C147.222 101.731 146.309 101.891 145.437 101.696C144.566 101.502 143.807 100.969 143.328 100.215L141.469 99.5238L140.901 96.3923L140.496 95.7548L143.431 93.8911Z" fill="#2F2E41"/>
        <path d="M53.5703 70.1593L52.8928 66.2325L63.1927 61.5815L65.417 57.6433C65.3452 57.2977 65.3702 56.939 65.4895 56.6068C65.6087 56.2746 65.8175 55.9818 66.0926 55.7608C66.3678 55.5397 66.6988 55.3991 67.0489 55.3543C67.399 55.3096 67.7547 55.3625 68.0766 55.5071C68.3986 55.6518 68.6743 55.8827 68.8732 56.1742C69.0722 56.4658 69.1867 56.8066 69.2042 57.1592C69.2216 57.5117 69.1412 57.8622 68.9719 58.1719C68.8027 58.4816 68.5511 58.7386 68.245 58.9143L64.5859 64.5713L53.5703 70.1593Z" fill="#A0616A"/>
        <path d="M50.4394 66.9494L55.0777 64.5801L56.3055 69.1904L53.0837 71.5786L50.4394 66.9494Z" fill="#6C63FF"/>
        <path d="M40.0313 145.314L42.8357 145.314L44.1699 134.497L40.0306 134.497L40.0313 145.314Z" fill="#A0616A"/>
        <path d="M43.769 145.567V143.666L43.0317 143.711L40.0304 143.888L39.3358 143.931L38.8048 150.299L38.7763 150.64H40.7677L40.8317 150.301L41.1209 148.76L41.8677 150.301L42.0313 150.64H47.3107C47.6249 150.638 47.9256 150.512 48.1475 150.29C48.3695 150.067 48.4947 149.766 48.4961 149.452C48.7189 148.412 44.3284 146.162 43.769 145.567Z" fill="#2F2E41"/>
        <path d="M6.74079 102.384L6.08702 105.112L16.2953 108.931L17.2601 104.906L6.74079 102.384Z" fill="#A0616A"/>
        <path d="M5.84578 105.96L7.69465 106.404L7.82276 105.676L8.34963 102.716L8.47009 102.031L2.4018 100.03L2.07646 99.9224L1.61216 101.859L1.92689 102L3.35792 102.641L1.68534 103.008L1.31754 103.088L0.0865808 108.222C0.0152641 108.527 0.0675251 108.849 0.232026 109.117C0.396526 109.385 0.659978 109.577 0.965171 109.651C1.92525 110.11 5.13669 106.366 5.84578 105.96Z" fill="#2F2E41"/>
        <path d="M44.3676 75.3047L40.7578 73.6172L33.559 82.329L29.1741 83.4379C28.8596 83.2777 28.507 83.2074 28.1551 83.235C27.8032 83.2625 27.4658 83.3868 27.1801 83.5941C26.8944 83.8014 26.6716 84.0836 26.5362 84.4096C26.4008 84.7356 26.3582 85.0926 26.413 85.4413C26.4679 85.79 26.618 86.1167 26.8468 86.3854C27.0757 86.6542 27.3744 86.8544 27.7099 86.964C28.0454 87.0736 28.4047 87.0884 28.7481 87.0066C29.0914 86.9249 29.4055 86.7498 29.6556 86.5008L36.0765 84.4603L44.3676 75.3047Z" fill="#A0616A"/>
        <path d="M95.5453 43.0545C94.7801 43.0545 94.0321 42.8276 93.3959 42.4025C92.7597 41.9774 92.2638 41.3732 91.971 40.6662C91.6782 39.9593 91.6016 39.1814 91.7508 38.4309C91.9001 37.6805 92.2686 36.9911 92.8096 36.45C93.3507 35.909 94.0401 35.5405 94.7905 35.3912C95.541 35.242 96.3189 35.3186 97.0258 35.6114C97.7328 35.9042 98.337 36.4001 98.7621 37.0363C99.1872 37.6725 99.4141 38.4205 99.4141 39.1857C99.413 40.2114 99.005 41.1948 98.2797 41.9201C97.5544 42.6454 96.571 43.0534 95.5453 43.0545ZM95.5453 35.7609C94.8679 35.7609 94.2058 35.9617 93.6426 36.3381C93.0794 36.7144 92.6404 37.2493 92.3812 37.8751C92.122 38.5009 92.0541 39.1895 92.1863 39.8539C92.3184 40.5182 92.6446 41.1285 93.1236 41.6074C93.6025 42.0864 94.2128 42.4126 94.8772 42.5447C95.5415 42.6769 96.2301 42.6091 96.8559 42.3498C97.4817 42.0906 98.0166 41.6516 98.3929 41.0884C98.7693 40.5252 98.9701 39.8631 98.9701 39.1857C98.9691 38.2777 98.6079 37.4072 97.9659 36.7651C97.3238 36.1231 96.4533 35.7619 95.5453 35.7609Z" fill="#E6E6E6"/>
        <path d="M95.2723 40.6434C95.2645 40.6434 95.2567 40.6432 95.249 40.6428C95.1803 40.6395 95.1131 40.6213 95.0521 40.5896C94.9911 40.5579 94.9376 40.5134 94.8954 40.4591L94.286 39.6756C94.2475 39.6261 94.2191 39.5696 94.2025 39.5091C94.1859 39.4487 94.1813 39.3856 94.1891 39.3234C94.1969 39.2613 94.2168 39.2012 94.2478 39.1467C94.2788 39.0923 94.3202 39.0444 94.3696 39.006L94.3916 38.9889C94.441 38.9504 94.4976 38.922 94.558 38.9054C94.6184 38.8887 94.6816 38.8842 94.7438 38.8919C94.806 38.8997 94.866 38.9197 94.9205 38.9507C94.975 38.9817 95.0228 39.0231 95.0613 39.0726C95.0921 39.1121 95.131 39.1445 95.1755 39.1676C95.22 39.1907 95.2689 39.2039 95.3189 39.2063C95.369 39.2088 95.4189 39.2004 95.4654 39.1817C95.5119 39.1631 95.5538 39.1346 95.5883 39.0982L96.8257 37.7919C96.9128 37.7001 97.0328 37.6467 97.1592 37.6432C97.2857 37.6398 97.4084 37.6867 97.5003 37.7735L97.5206 37.7929C97.5661 37.836 97.6027 37.8876 97.6282 37.9448C97.6538 38.0021 97.6678 38.0637 97.6695 38.1264C97.6712 38.189 97.6605 38.2514 97.6381 38.3099C97.6157 38.3684 97.582 38.422 97.5388 38.4674L95.6185 40.4944C95.574 40.5415 95.5203 40.5789 95.4608 40.6046C95.4012 40.6302 95.3371 40.6434 95.2723 40.6434Z" fill="#E6E6E6"/>
        <path d="M76.232 89.8948C75.4669 89.8948 74.7189 89.668 74.0827 89.2428C73.4464 88.8177 72.9505 88.2135 72.6577 87.5066C72.3649 86.7996 72.2883 86.0217 72.4376 85.2713C72.5869 84.5208 72.9553 83.8314 73.4964 83.2904C74.0374 82.7493 74.7268 82.3808 75.4773 82.2316C76.2278 82.0823 77.0056 82.1589 77.7126 82.4517C78.4195 82.7445 79.0237 83.2404 79.4488 83.8766C79.874 84.5129 80.1009 85.2609 80.1009 86.026C80.0997 87.0518 79.6917 88.0351 78.9664 88.7604C78.2411 89.4857 77.2578 89.8937 76.232 89.8948ZM76.232 82.6012C75.5547 82.6012 74.8925 82.8021 74.3293 83.1784C73.7661 83.5547 73.3271 84.0896 73.0679 84.7154C72.8087 85.3412 72.7409 86.0298 72.873 86.6942C73.0052 87.3585 73.3314 87.9688 73.8103 88.4478C74.2893 88.9267 74.8995 89.2529 75.5639 89.3851C76.2283 89.5172 76.9169 89.4494 77.5427 89.1902C78.1685 88.9309 78.7034 88.492 79.0797 87.9288C79.456 87.3656 79.6569 86.7034 79.6569 86.026C79.6558 85.118 79.2947 84.2475 78.6526 83.6055C78.0106 82.9634 77.14 82.6022 76.232 82.6012Z" fill="#E6E6E6"/>
        <path d="M75.959 87.4837C75.9513 87.4837 75.9435 87.4835 75.9357 87.4831C75.867 87.4798 75.7999 87.4617 75.7388 87.43C75.6778 87.3983 75.6244 87.3537 75.5822 87.2994L74.9727 86.5159C74.9342 86.4665 74.9059 86.4099 74.8893 86.3495C74.8726 86.2891 74.8681 86.226 74.8758 86.1638C74.8836 86.1016 74.9035 86.0415 74.9345 85.9871C74.9655 85.9326 75.0069 85.8848 75.0564 85.8463L75.0783 85.8292C75.1278 85.7907 75.1843 85.7623 75.2448 85.7457C75.3052 85.7291 75.3683 85.7245 75.4305 85.7323C75.4927 85.74 75.5528 85.76 75.6072 85.791C75.6617 85.822 75.7096 85.8634 75.748 85.9129C75.7788 85.9524 75.8178 85.9848 75.8622 86.0079C75.9067 86.031 75.9556 86.0442 76.0057 86.0467C76.0557 86.0491 76.1057 86.0407 76.1522 86.022C76.1987 86.0034 76.2406 85.9749 76.2751 85.9386L77.5125 84.6322C77.5996 84.5405 77.7195 84.487 77.846 84.4836C77.9724 84.4801 78.0951 84.527 78.1871 84.6139L78.2074 84.6332C78.2529 84.6763 78.2894 84.7279 78.315 84.7852C78.3405 84.8424 78.3545 84.9041 78.3562 84.9667C78.3579 85.0294 78.3472 85.0917 78.3248 85.1502C78.3024 85.2088 78.2687 85.2623 78.2256 85.3078L76.3053 87.3347C76.2607 87.3818 76.207 87.4193 76.1475 87.4449C76.088 87.4705 76.0238 87.4837 75.959 87.4837Z" fill="#E6E6E6"/>
        <path d="M33.8317 37.7269C33.0665 37.7269 32.3185 37.5 31.6823 37.0749C31.046 36.6498 30.5502 36.0455 30.2574 35.3386C29.9645 34.6317 29.8879 33.8538 30.0372 33.1033C30.1865 32.3528 30.5549 31.6635 31.096 31.1224C31.6371 30.5813 32.3264 30.2129 33.0769 30.0636C33.8274 29.9143 34.6053 29.9909 35.3122 30.2838C36.0191 30.5766 36.6234 31.0725 37.0485 31.7087C37.4736 32.3449 37.7005 33.0929 37.7005 33.8581C37.6993 34.8838 37.2914 35.8672 36.5661 36.5925C35.8408 37.3178 34.8574 37.7257 33.8317 37.7269ZM33.8317 30.4332C33.1543 30.4332 32.4921 30.6341 31.9289 31.0104C31.3657 31.3868 30.9268 31.9216 30.6675 32.5474C30.4083 33.1733 30.3405 33.8619 30.4726 34.5262C30.6048 35.1906 30.931 35.8008 31.41 36.2798C31.8889 36.7588 32.4992 37.0849 33.1635 37.2171C33.8279 37.3492 34.5165 37.2814 35.1423 37.0222C35.7681 36.763 36.303 36.324 36.6793 35.7608C37.0556 35.1976 37.2565 34.5354 37.2565 33.8581C37.2555 32.9501 36.8943 32.0795 36.2522 31.4375C35.6102 30.7954 34.7397 30.4343 33.8317 30.4332Z" fill="#E6E6E6"/>
        <path d="M33.5586 35.3153C33.5509 35.3153 33.5431 35.315 33.5353 35.3146C33.4666 35.3113 33.3995 35.2932 33.3385 35.2615C33.2774 35.2298 33.224 35.1853 33.1818 35.131L32.5724 34.3474C32.5339 34.298 32.5055 34.2414 32.4889 34.181C32.4722 34.1206 32.4677 34.0575 32.4754 33.9953C32.4832 33.9331 32.5032 33.8731 32.5341 33.8186C32.5651 33.7641 32.6065 33.7163 32.656 33.6778L32.6779 33.6608C32.7274 33.6223 32.7839 33.5939 32.8444 33.5772C32.9048 33.5606 32.9679 33.556 33.0301 33.5638C33.0923 33.5716 33.1524 33.5915 33.2069 33.6225C33.2614 33.6535 33.3092 33.695 33.3477 33.7445C33.3784 33.784 33.4174 33.8164 33.4619 33.8395C33.5063 33.8626 33.5552 33.8758 33.6053 33.8782C33.6553 33.8806 33.7053 33.8722 33.7518 33.8536C33.7983 33.8349 33.8402 33.8065 33.8747 33.7701L35.1121 32.4638C35.1992 32.372 35.3191 32.3186 35.4456 32.3151C35.5721 32.3117 35.6947 32.3585 35.7867 32.4454L35.807 32.4648C35.8525 32.5078 35.8891 32.5595 35.9146 32.6167C35.9401 32.6739 35.9542 32.7356 35.9558 32.7983C35.9575 32.8609 35.9469 32.9233 35.9245 32.9818C35.902 33.0403 35.8683 33.0938 35.8252 33.1393L33.9049 35.1662C33.8603 35.2133 33.8067 35.2508 33.7471 35.2764C33.6876 35.3021 33.6235 35.3153 33.5586 35.3153Z" fill="#E6E6E6"/>
        <path d="M64.8053 104.279C55.8341 104.279 45.5238 94.324 36.4018 99.0541C8.78268 113.376 12.5846 89.4108 4.64987 80.4981L4.91037 79.9756C13.6654 87.8259 24.5964 94.2131 36.5217 98.4463C47.2984 102.272 58.1559 104.045 67.9165 103.577L67.9334 104.205C66.9026 104.255 65.8599 104.28 64.8053 104.279Z" fill="#F2F2F2"/>
        <path d="M52.499 36.9696C53.5347 36.9696 54.3743 35.8438 54.3743 34.455C54.3743 33.0663 53.5347 31.9404 52.499 31.9404C51.4633 31.9404 50.6238 33.0663 50.6238 34.455C50.6238 35.8438 51.4633 36.9696 52.499 36.9696Z" fill="#E6E6E6"/>
        <path d="M74.158 76.1977C73.3007 76.7689 72.4232 75.4094 73.297 74.8635C74.1543 74.2923 75.0318 75.6519 74.158 76.1977Z" fill="#E6E6E6"/>
        <path d="M69.2233 30.4268C70.5719 30.4268 71.6652 29.3335 71.6652 27.9849C71.6652 26.6362 70.5719 25.543 69.2233 25.543C67.8746 25.543 66.7814 26.6362 66.7814 27.9849C66.7814 29.3335 67.8746 30.4268 69.2233 30.4268Z" fill="#FF6584"/>
        <path opacity="0.3" d="M77.7642 41.3662L91.6593 0.78418L76.4016 40.8804C76.3261 40.9756 76.2744 41.0874 76.2508 41.2065C76.2272 41.3257 76.2323 41.4487 76.2657 41.5655C76.2992 41.6823 76.36 41.7894 76.4431 41.8779C76.5262 41.9665 76.6293 42.034 76.7437 42.0748C76.8581 42.1155 76.9805 42.1285 77.1009 42.1125C77.2213 42.0964 77.3362 42.052 77.4359 41.9827C77.5357 41.9134 77.6175 41.8214 77.6746 41.7142C77.7317 41.6069 77.7624 41.4877 77.7642 41.3662Z" fill="#F0F0F0"/>
        <path d="M63.7387 90.8068C65.0508 90.8068 66.1145 89.7431 66.1145 88.431C66.1145 87.1189 65.0508 86.0552 63.7387 86.0552C62.4266 86.0552 61.3629 87.1189 61.3629 88.431C61.3629 89.7431 62.4266 90.8068 63.7387 90.8068Z" fill="#F2F2F2"/>
        <path d="M40.7282 89.3374C40.7282 89.3374 34.8054 93.1942 36.3715 95.7569C36.4255 95.8453 29.2967 105.261 29.2967 105.261L15.8391 104.406L15.365 108.911L27.3459 112.381C27.3459 112.381 30.2769 114.534 32.5411 112.161C34.8054 109.789 42.3474 102.523 42.3474 102.523L42.7112 117.192L38.9251 137.518L44.5781 137.16L50.0803 116.767L52.1112 93.6683L40.7282 89.3374Z" fill="#2F2E41"/>
        <path d="M44.9471 66.1904L42.4564 68.078L39.6176 74.1369L42.3474 77.8443C42.3474 77.8443 44.6436 81.8239 40.9682 85.6778C37.2927 89.5318 34.4703 93.648 37.4122 93.501C40.354 93.3541 52.2689 99.4142 52.3473 94.4493C52.4257 89.4844 52.5844 85.6778 52.5844 85.6778L55.7082 77.7547C55.7082 77.7547 57.5693 73.0282 56.2627 71.6134C54.956 70.1985 53.2065 68.3906 53.2065 68.3906L50.0249 65.209H47.1521L44.9471 66.1904Z" fill="#6C63FF"/>
        <path d="M49.5966 54.5491C55.1842 57.7286 50.597 66.118 44.9052 63.1306C39.3178 59.9511 43.905 51.5618 49.5966 54.5491Z" fill="#A0616A"/>
        <path d="M52.5844 56.3121C52.1929 56.8213 51.3749 56.5826 49.7731 56.9459C49.7766 56.403 49.7138 55.8616 49.5863 55.3338C49.4671 55.9873 49.2059 56.6066 48.8211 57.1481C47.4302 57.3023 49.1353 61.5279 48.4231 64.6347C47.5055 58.0804 45.5755 59.7976 46.5505 61.0976C47.1747 61.9299 46.7586 64.4266 44.886 63.1782C41.7964 64.6466 37.3957 57.3524 42.273 53.9316C42.1858 52.0825 44.2433 51.7904 45.5102 52.3589C48.5849 50.0684 52.0978 53.0033 52.5844 56.3121Z" fill="#2F2E41"/>
        <path d="M38.2478 51.5293C37.0038 59.1779 30.336 50.1226 27.2008 57.6496C26.2151 60.3755 27.9064 62.3254 28.9762 64.588C29.2203 66.4474 26.8014 67.3908 26.548 69.1024C26.4775 73.0264 32.8082 72.7863 34.5779 70.3106C36.3964 67.719 34.2249 64.2419 35.3179 61.4601C36.8542 57.598 43.1018 57.5693 43.646 53.0761C42.5919 51.5751 39.7575 49.8559 38.2478 51.5293Z" fill="#2F2E41"/>
        <path d="M43.2873 52.2768C43.2466 52.294 43.2059 52.3111 43.1695 52.3304H43.1673C43.1331 52.3475 43.0988 52.3646 43.0645 52.3839C43.0602 52.3861 43.0581 52.3882 43.0538 52.3904C43.0088 52.3475 42.9639 52.3047 42.9167 52.2618C42.9046 52.3316 42.9075 52.4032 42.9253 52.4717L42.9317 52.4975C42.9746 52.5424 43.0196 52.5853 43.0667 52.6303C43.1095 52.5981 43.1502 52.5639 43.1931 52.5317C43.2188 52.5103 43.2445 52.4889 43.2723 52.4675C43.2766 52.4118 43.283 52.3475 43.2894 52.2768L43.2873 52.2768ZM44.5768 49.895C43.6214 49.6765 43.313 50.9253 43.2209 51.5271C42.8739 49.3423 41.4302 50.0299 41.9293 51.5207C42.0884 51.9621 42.3387 52.365 42.664 52.7031C42.709 52.7545 42.7582 52.8059 42.8096 52.8573C42.7518 53.1572 43.0431 53.0801 43.4372 52.8038C43.7282 52.5968 43.9974 52.3607 44.2405 52.099C45.0266 51.2744 45.6392 50.1713 44.5768 49.895ZM44.6067 51.1245C44.312 51.5045 43.9813 51.8553 43.6193 52.1719C43.5058 52.2747 43.3901 52.3732 43.2723 52.4675C43.2702 52.4867 43.2702 52.5039 43.268 52.5189C43.2598 52.5397 43.2497 52.5597 43.238 52.5788C43.1181 52.7952 42.9831 52.6774 42.9317 52.4975C42.9275 52.491 42.921 52.4846 42.9167 52.4782C42.7456 52.3014 42.5967 52.1043 42.4734 51.8913C41.5887 50.3576 43.0131 49.3145 42.9424 52.1783C42.9294 52.2046 42.9207 52.2328 42.9167 52.2618C42.9046 52.3316 42.9075 52.4032 42.9253 52.4717L42.9317 52.4975C42.9746 52.5424 43.0196 52.5853 43.0667 52.6303C43.1095 52.5981 43.1502 52.5639 43.1931 52.5317C43.2188 52.5103 43.2445 52.4889 43.2723 52.4675C43.2766 52.4118 43.283 52.3475 43.2894 52.2768V52.2747C43.3451 51.7006 43.4972 50.6682 43.7778 50.3876C44.3947 49.9142 45.1936 50.4262 44.6067 51.1245ZM43.2873 52.2768C43.2466 52.294 43.2059 52.3111 43.1695 52.3304H43.1673C43.1331 52.3475 43.0988 52.3646 43.0645 52.3839C43.0602 52.3861 43.0581 52.3882 43.0538 52.3904C43.0088 52.3475 42.9639 52.3047 42.9167 52.2618C42.9046 52.3316 42.9075 52.4032 42.9253 52.4717L42.9317 52.4975C42.9746 52.5424 43.0196 52.5853 43.0667 52.6303C43.1095 52.5981 43.1502 52.5639 43.1931 52.5317C43.2188 52.5103 43.2445 52.4889 43.2723 52.4675C43.2766 52.4118 43.283 52.3475 43.2894 52.2768L43.2873 52.2768Z" fill="#2F2E41"/>
        <path d="M94.9321 94.4463L92.8684 99.8282L83.1878 118.924L91.6941 141.138L96.0842 139.979L92.4658 118.924L102.847 106.31L115.176 114.672C115.176 114.672 120.643 118.941 122.723 114.894C124.803 110.847 138.263 102.241 138.263 102.241L134.933 98.6887L119.434 105.942L108.736 90.8848L94.9321 94.4463Z" fill="#2F2E41"/>
        <path d="M105.345 69.0608L101.948 65.4111L96.1206 64.6094L88.9805 69.6079L89.0524 75.1406L92.5821 88.178C92.5821 88.178 91.2376 97.5447 94.9929 97.4508C98.7481 97.3568 100.795 95.4847 102.324 95.8658C103.854 96.2469 110.356 97.8689 110.768 96.1699C111.18 94.471 113.37 95.6874 113.274 94.0802C113.178 92.473 107.345 80.888 107.345 80.888L108.795 69.3018L105.345 69.0608Z" fill="#6C63FF"/>
        <path d="M126.854 52.2603C126.884 52.5629 126.848 52.8686 126.748 53.1557C126.647 53.4428 126.485 53.7044 126.272 53.922C126.06 54.1397 125.802 54.3081 125.517 54.4153C125.233 54.5226 124.928 54.5662 124.625 54.5429L116.813 69.4001L114.715 66.1804L122.7 52.1585C122.773 51.6515 123.029 51.1889 123.42 50.8582C123.811 50.5276 124.31 50.3519 124.822 50.3644C125.334 50.3769 125.824 50.5769 126.198 50.9263C126.573 51.2757 126.806 51.7504 126.854 52.2603Z" fill="#FFB6B6"/>
        <path d="M102.261 71.823C102.261 71.823 101.951 74.4657 104.926 75.12C107.901 75.7743 116.144 71.0644 117.495 70.3451C117.918 70.1198 118.493 69.0157 119.082 67.6052C119.346 66.9719 119.614 66.277 119.872 65.572C120.021 65.1641 120.737 65.0528 120.878 64.6482C121.018 64.2459 120.583 63.5503 120.71 63.1711C121.312 61.3712 121.738 59.9433 121.738 59.9433L119.766 56.2393C117.008 57.6972 115.594 60.9087 114.554 64.6086L102.261 71.823Z" fill="#6C63FF"/>
        <path d="M67.5147 55.672C67.561 55.9727 67.6727 56.2595 67.8419 56.5123C68.011 56.7652 68.2336 56.9778 68.4938 57.1353C68.7541 57.2929 69.0457 57.3914 69.3481 57.424C69.6505 57.4566 69.9565 57.4226 70.2443 57.3242L81.5259 69.7535L82.7507 66.1114L71.5108 54.534C71.3134 54.0614 70.9496 53.6776 70.4882 53.4553C70.0268 53.233 69.4998 53.1878 69.0073 53.3281C68.5147 53.4683 68.0907 53.7844 67.8156 54.2164C67.5405 54.6485 67.4334 55.1664 67.5147 55.672Z" fill="#FFB6B6"/>
        <path d="M96.2211 68.458C96.2211 68.458 97.1824 70.9391 94.4657 72.3171C91.7489 73.6951 82.5899 71.1979 81.1016 70.8396C80.6356 70.7274 79.8033 69.8021 78.88 68.5839C78.4654 68.037 78.0325 67.4311 77.6061 66.8132C77.3594 66.4557 76.6388 66.5269 76.4012 66.1705C76.165 65.816 76.4116 65.0337 76.194 64.6983C75.1608 63.1064 74.3906 61.8306 74.3906 61.8306L75.3728 57.751C78.4077 58.4724 80.5809 61.2277 82.5141 64.5495L96.2211 68.458Z" fill="#6C63FF"/>
        <path d="M99.1505 63.6808C102.213 63.6808 104.695 61.1984 104.695 58.1363C104.695 55.0741 102.213 52.5918 99.1505 52.5918C96.0884 52.5918 93.606 55.0741 93.606 58.1363C93.606 61.1984 96.0884 63.6808 99.1505 63.6808Z" fill="#FFB6B6"/>
        <path d="M105.48 54.9616C104.896 54.0593 103.802 53.458 102.741 53.6269C102.642 52.9498 102.36 52.3128 101.924 51.7852C101.488 51.2576 100.916 50.8596 100.27 50.6346C99.6234 50.4097 98.9279 50.3663 98.2587 50.5093C97.5895 50.6523 96.9724 50.9761 96.4745 51.4455C96.3108 51.3303 96.1201 51.2592 95.9208 51.2393C95.7216 51.2193 95.5206 51.2512 95.3372 51.3317C94.9721 51.4978 94.6544 51.7528 94.4133 52.0734C93.8045 52.8326 93.4129 53.7427 93.2803 54.7068C93.1477 55.6709 93.279 56.653 93.6602 57.5484C93.5306 57.077 94.003 56.6335 94.4803 56.5277C94.9576 56.422 95.4582 56.522 95.9423 56.4531C96.5626 56.3649 97.1203 56.005 97.7416 55.924C98.2685 55.8897 98.7971 55.9576 99.2982 56.124C99.7992 56.2904 100.327 56.3612 100.854 56.333C101.377 56.2709 102.051 58.2527 102.042 59.6486C102.04 59.9131 102.094 60.2528 102.353 60.3089C102.671 60.378 102.856 59.9386 103.159 59.8189C103.299 59.7789 103.448 59.7946 103.577 59.8628C103.705 59.931 103.802 60.0464 103.846 60.1845C103.885 60.325 103.889 60.4726 103.858 60.6149C103.828 60.7573 103.764 60.8903 103.672 61.003C103.486 61.2264 103.265 61.4182 103.017 61.571L103.142 61.6748C103.26 61.8 103.419 61.8801 103.59 61.9013C103.761 61.9226 103.934 61.8837 104.079 61.7913C104.366 61.5975 104.597 61.3337 104.752 61.0249C105.337 60.1205 105.755 59.1186 105.987 58.0667C106.182 57.0103 106.063 55.8639 105.48 54.9616Z" fill="#2F2E41"/>
        <path d="M146.498 76.8294C139.346 82.2459 125.116 80.5347 120.7 89.813C107.33 117.905 95.8919 96.5056 84.1855 94.1914L84.0777 93.6176C95.7966 94.5896 108.367 93.0815 120.429 89.2561C131.33 85.7994 141.055 80.6571 148.554 74.3911L148.946 74.8815C148.155 75.5435 147.338 76.1928 146.498 76.8294Z" fill="#F2F2F2"/>
        <path d="M116.261 150.406C116.091 150.91 18.842 150.91 18.6582 150.407C18.8283 149.901 116.077 149.901 116.261 150.406Z" fill="#CCCCCC"/>
    </g>
    <defs>
        <clipPath id="clip0_14_65">
            <rect width="148.893" height="150" fill="white" transform="translate(0.0537415 0.78418)"/>
        </clipPath>
    </defs>
</svg>