<svg width="24" height="25" viewBox="0 0 24 25" fill="none" xmlns="http://www.w3.org/2000/svg">
    <path d="M16 8.05859C17.5913 8.05859 19.1174 8.69073 20.2426 9.81595C21.3679 10.9412 22 12.4673 22 14.0586V21.0586H18V14.0586C18 13.5282 17.7893 13.0195 17.4142 12.6444C17.0391 12.2693 16.5304 12.0586 16 12.0586C15.4696 12.0586 14.9609 12.2693 14.5858 12.6444C14.2107 13.0195 14 13.5282 14 14.0586V21.0586H10V14.0586C10 12.4673 10.6321 10.9412 11.7574 9.81595C12.8826 8.69073 14.4087 8.05859 16 8.05859Z" stroke="white" stroke-width="2" stroke-linecap="round" stroke-linejoin="round"/>
    <path d="M6 9.05859H2V21.0586H6V9.05859Z" stroke="white" stroke-width="2" stroke-linecap="round" stroke-linejoin="round"/>
    <path d="M4 6.05859C5.10457 6.05859 6 5.16316 6 4.05859C6 2.95402 5.10457 2.05859 4 2.05859C2.89543 2.05859 2 2.95402 2 4.05859C2 5.16316 2.89543 6.05859 4 6.05859Z" stroke="white" stroke-width="2" stroke-linecap="round" stroke-linejoin="round"/>
</svg>
