<svg width="264" height="38" viewBox="0 0 264 38" fill="none" xmlns="http://www.w3.org/2000/svg">
    <path d="M18.9084 9.23594L37.8409 20.2896V11.0659L18.8962 0L0 11.0782V20.3142L18.9084 9.23594Z" fill="#007AFF"/>
    <path d="M34.8127 31.4047L37.8409 29.5993V23.9373L18.8962 12.8591L0 23.9373V29.6238L3.02824 31.4047L18.8962 22.0951L34.8127 31.4047Z" fill="#007AFF"/>
    <path d="M18.9084 35.1875L23.7172 38L31.6149 33.3943L18.8962 25.9515L6.22607 33.3943L14.1237 38L18.9084 35.1875Z" fill="#007AFF"/>
    <path d="M64.108 9.60598H68.6497V29.6279H64.108V21.7049H56.6325V29.6279H52.0908V9.60598H56.6325V17.4717H64.108V9.60598ZM79.059 14.497C82.3877 14.497 86.7884 17.0427 86.7884 22.2484C86.7884 27.4827 82.3877 29.9139 79.059 29.9139C75.7303 29.9139 71.3296 27.4827 71.3296 22.2484C71.3296 17.0427 75.7303 14.497 79.059 14.497ZM79.059 18.4728C77.3664 18.4728 75.6456 19.7885 75.6456 22.2484C75.6456 24.6224 77.3664 25.9381 79.059 25.9381C80.7515 25.9381 82.5005 24.6224 82.5005 22.2484C82.5005 19.7885 80.7515 18.4728 79.059 18.4728ZM96.4924 14.497C99.8211 14.497 104.222 17.0427 104.222 22.2484C104.222 27.4827 99.8211 29.9139 96.4924 29.9139C93.1637 29.9139 88.763 27.4827 88.763 22.2484C88.763 17.0427 93.1637 14.497 96.4924 14.497ZM96.4924 18.4728C94.7998 18.4728 93.0791 19.7885 93.0791 22.2484C93.0791 24.6224 94.7998 25.9381 96.4924 25.9381C98.185 25.9381 99.934 24.6224 99.934 22.2484C99.934 19.7885 98.185 18.4728 96.4924 18.4728ZM116.803 29.6279L112.036 23.8501L111.105 24.8512V29.6279H106.648V24.2219V9.40576H111.105V19.3309L115.252 14.7545H120.583L114.772 20.9612L121.881 29.6279H116.803ZM130.852 19.4453C130.457 18.4156 129.864 18.0724 129.215 18.0724C128.623 18.0724 128.031 18.4156 128.031 18.9877C128.031 19.5311 128.369 19.8457 129.018 20.0746L130.88 20.7324C132.967 21.5047 135.083 22.277 135.083 25.2516C135.083 28.2549 132.121 29.9711 129.074 29.9711C126.338 29.9711 123.771 28.3407 123.15 25.7379L126.648 24.6224C127.015 25.4519 127.664 26.3958 129.074 26.3958C130.033 26.3958 130.654 25.7665 130.654 25.1944C130.654 24.9084 130.428 24.5366 129.723 24.2506L128.002 23.6213C125.069 22.5344 123.686 21.0184 123.686 18.9019C123.686 16.1274 126.225 14.497 129.018 14.497C131.867 14.497 133.757 16.0702 134.603 18.4442L130.852 19.4453ZM158.92 9.60598V29.6279H154.237V19.9602L150.203 29.6279H146.282L142.305 20.0174V29.6279H137.622V9.60598H142.107L148.285 23.5069L154.435 9.60598H158.92ZM172.601 14.7545H177.059V29.6279H172.601V28.1405C172.404 28.6554 171.078 29.9139 168.821 29.9139C165.464 29.9139 161.6 27.4827 161.6 22.1626C161.6 17.0427 165.464 14.497 168.821 14.497C171.078 14.497 172.404 15.8128 172.601 16.1274V14.7545ZM169.47 25.9381C171.304 25.9381 172.799 24.651 172.799 22.1626C172.799 19.7599 171.304 18.4728 169.47 18.4728C167.552 18.4728 165.916 19.7885 165.916 22.1626C165.916 24.6224 167.552 25.9381 169.47 25.9381ZM186.904 19.4453C186.509 18.4156 185.916 18.0724 185.268 18.0724C184.675 18.0724 184.083 18.4156 184.083 18.9877C184.083 19.5311 184.421 19.8457 185.07 20.0746L186.932 20.7324C189.019 21.5047 191.135 22.277 191.135 25.2516C191.135 28.2549 188.173 29.9711 185.126 29.9711C182.39 29.9711 179.823 28.3407 179.202 25.7379L182.7 24.6224C183.067 25.4519 183.716 26.3958 185.126 26.3958C186.086 26.3958 186.706 25.7665 186.706 25.1944C186.706 24.9084 186.481 24.5366 185.775 24.2506L184.055 23.6213C181.121 22.5344 179.738 21.0184 179.738 18.9019C179.738 16.1274 182.277 14.497 185.07 14.497C187.919 14.497 189.809 16.0702 190.656 18.4442L186.904 19.4453ZM200.557 25.8523C201.347 25.8523 201.911 25.7379 202.532 25.5663V29.3132C201.911 29.5993 200.896 29.7995 199.4 29.7995C196.946 29.7995 194.887 28.97 194.887 24.3936V18.4728H192.828V14.7545H194.887V11.2649H199.344V14.7545H202.475V18.4728H199.344V24.3936C199.344 25.0514 199.513 25.8523 200.557 25.8523ZM212.179 14.497C215.508 14.497 220.163 17.0427 219.232 23.7643H208.992C209.499 25.3089 210.825 26.1097 212.602 26.1097C214.408 26.1097 214.972 25.7093 215.988 25.2802L218.442 27.6829C217.144 28.97 215.395 29.9139 212.433 29.9139C208.794 29.9139 204.45 27.3682 204.45 22.2484C204.45 17.0427 208.851 14.497 212.179 14.497ZM212.179 18.3584C210.91 18.3584 209.612 19.1021 209.048 20.5894H215.282C214.831 19.1021 213.449 18.3584 212.179 18.3584ZM231.192 14.5256C231.587 14.5256 231.982 14.5256 232.349 14.6114V18.9305C232.011 18.8446 231.616 18.8446 231.333 18.8446C228.625 18.8446 226.453 20.8182 226.228 23.5641V29.6279H221.771V14.7545H226.228V18.387C226.905 16.156 228.597 14.5256 231.192 14.5256ZM236.693 29.7709C235.339 29.7709 234.183 28.5982 234.183 27.2252C234.183 25.8237 235.339 24.651 236.693 24.651C238.076 24.651 239.232 25.8237 239.232 27.2252C239.232 28.5982 238.076 29.7709 236.693 29.7709ZM246.115 9.40576V13.2099H241.658V9.40576H246.115ZM246.115 14.7545V29.6279H241.658V14.7545H246.115ZM256.271 14.497C259.599 14.497 264 17.0427 264 22.2484C264 27.4827 259.599 29.9139 256.271 29.9139C252.942 29.9139 248.541 27.4827 248.541 22.2484C248.541 17.0427 252.942 14.497 256.271 14.497ZM256.271 18.4728C254.578 18.4728 252.857 19.7885 252.857 22.2484C252.857 24.6224 254.578 25.9381 256.271 25.9381C257.963 25.9381 259.712 24.6224 259.712 22.2484C259.712 19.7885 257.963 18.4728 256.271 18.4728Z" fill="#191919"/>
</svg>