<svg width="297" height="151" viewBox="0 0 297 151" fill="none" xmlns="http://www.w3.org/2000/svg">
    <g clip-path="url(#clip0_14_273)">
        <path d="M283.938 144.745C275.341 150.938 264.201 151.249 253.433 150.488C251.929 150.382 250.436 150.257 248.957 150.123C248.948 150.121 248.936 150.122 248.927 150.119C248.856 150.112 248.785 150.106 248.717 150.102C248.412 150.073 248.106 150.045 247.804 150.016L247.875 150.152L248.099 150.575C248.019 150.434 247.938 150.295 247.858 150.153C247.834 150.111 247.807 150.069 247.784 150.026C244.994 145.172 242.228 140.139 241.522 134.596C240.792 128.842 242.842 122.328 247.906 119.5C248.57 119.13 249.274 118.835 250.003 118.622C250.306 118.53 250.613 118.455 250.923 118.389C252.822 117.967 254.8 118.059 256.651 118.655C258.503 119.25 260.163 120.329 261.46 121.778C262.757 123.228 263.645 124.997 264.031 126.904C264.418 128.811 264.29 130.786 263.66 132.626C267.953 128.224 267.152 121.083 265.671 115.114C264.188 109.146 262.391 102.504 265.409 97.1435C267.087 94.1596 270.037 92.3083 273.348 91.5625C273.449 91.5406 273.551 91.5188 273.653 91.4998C277.597 90.7008 281.698 91.4194 285.136 93.512C291.467 97.5012 294.718 105.065 295.774 112.474C297.474 124.397 293.711 137.703 283.938 144.745Z" fill="#F2F2F2"/>
        <path d="M281.162 125.632C280.913 128.262 280.281 130.842 279.287 133.289C278.371 135.455 277.136 137.472 275.624 139.273C272.534 142.989 268.449 145.784 264.012 147.645C260.619 149.035 257.065 149.99 253.433 150.488C251.929 150.382 250.436 150.257 248.957 150.123C248.948 150.121 248.936 150.122 248.927 150.119C248.856 150.112 248.785 150.106 248.717 150.102C248.412 150.073 248.106 150.045 247.804 150.016L247.875 150.152L248.099 150.575C248.019 150.434 247.938 150.295 247.858 150.153C247.834 150.111 247.807 150.069 247.784 150.026C250.507 147.313 252.54 143.987 253.713 140.327C254.885 136.666 255.164 132.778 254.524 128.988C253.855 125.225 252.306 121.673 250.003 118.622C250.306 118.53 250.613 118.455 250.923 118.389C251.798 119.585 252.566 120.857 253.217 122.188C255.554 126.937 256.299 132.313 255.343 137.518C254.454 142.229 252.24 146.588 248.96 150.085C249.247 150.064 249.537 150.041 249.821 150.015C255.196 149.56 260.561 148.404 265.436 146.037C269.603 144.063 273.221 141.094 275.971 137.393C278.924 133.321 280.225 128.422 280.448 123.444C280.685 118.114 279.994 112.691 278.778 107.508C277.536 102.194 275.648 97.0525 273.157 92.1974C273.101 92.0873 273.09 91.96 273.126 91.8418C273.161 91.7236 273.241 91.6237 273.348 91.5625C273.437 91.5023 273.547 91.4798 273.653 91.4998C273.704 91.5135 273.753 91.5388 273.793 91.5736C273.834 91.6085 273.866 91.6521 273.888 91.7012C274.195 92.301 274.497 92.9011 274.787 93.508C277.203 98.563 278.982 103.899 280.082 109.392C281.151 114.692 281.721 120.235 281.162 125.632Z" fill="#485AFF"/>
        <path d="M168.919 147.481C173.31 150.645 179 150.804 184.501 150.415C185.269 150.361 186.032 150.297 186.787 150.229C186.792 150.227 186.798 150.228 186.803 150.227C186.839 150.223 186.875 150.22 186.91 150.218C187.066 150.203 187.222 150.188 187.377 150.174L187.34 150.243L187.225 150.46C187.267 150.387 187.308 150.316 187.349 150.244C187.361 150.222 187.375 150.201 187.387 150.179C188.812 147.699 190.225 145.129 190.585 142.297C190.958 139.358 189.911 136.03 187.324 134.586C186.985 134.397 186.626 134.246 186.253 134.137C186.098 134.09 185.942 134.052 185.783 134.018C184.813 133.803 183.803 133.85 182.857 134.154C181.911 134.458 181.063 135.009 180.401 135.75C179.738 136.49 179.285 137.394 179.087 138.368C178.89 139.342 178.955 140.351 179.277 141.291C177.084 139.042 177.493 135.394 178.249 132.345C179.007 129.297 179.925 125.904 178.383 123.166C177.947 122.431 177.36 121.797 176.661 121.306C175.962 120.815 175.167 120.477 174.328 120.315C174.276 120.303 174.224 120.292 174.172 120.283C172.157 119.875 170.063 120.242 168.306 121.31C165.073 123.348 163.412 127.212 162.873 130.997C162.004 137.087 163.926 143.884 168.919 147.481Z" fill="#F2F2F2"/>
        <path d="M170.336 137.718C170.464 139.061 170.787 140.379 171.294 141.629C171.762 142.736 172.393 143.766 173.166 144.686C174.772 146.566 176.806 148.033 179.097 148.963C180.83 149.673 182.646 150.16 184.501 150.415C185.269 150.361 186.032 150.297 186.787 150.228C186.792 150.227 186.798 150.228 186.803 150.226C186.839 150.223 186.875 150.22 186.91 150.217C187.066 150.203 187.222 150.188 187.377 150.174L187.34 150.243L187.225 150.459C187.267 150.387 187.308 150.316 187.349 150.244C187.361 150.222 187.375 150.201 187.387 150.179C185.996 148.793 184.957 147.094 184.358 145.224C183.759 143.354 183.617 141.368 183.944 139.432C184.285 137.51 185.077 135.695 186.253 134.137C186.098 134.09 185.942 134.052 185.783 134.018C185.336 134.629 184.944 135.279 184.611 135.959C183.418 138.385 183.037 141.13 183.525 143.79C183.979 146.196 185.11 148.423 186.786 150.209C186.639 150.198 186.491 150.186 186.346 150.173C183.585 149.991 180.881 149.302 178.37 148.141C176.241 147.133 174.393 145.616 172.988 143.726C171.48 141.645 170.815 139.143 170.701 136.6C170.613 133.861 170.9 131.122 171.555 128.46C172.189 125.745 173.153 123.119 174.426 120.639C174.454 120.583 174.46 120.518 174.442 120.457C174.423 120.397 174.383 120.346 174.328 120.314C174.282 120.284 174.226 120.272 174.172 120.282C174.146 120.289 174.121 120.302 174.101 120.32C174.08 120.338 174.063 120.36 174.052 120.385C173.895 120.692 173.741 120.998 173.593 121.308C172.359 123.89 171.45 126.616 170.888 129.422C170.29 132.144 170.104 134.941 170.336 137.718Z" fill="#485AFF"/>
        <path d="M51.8348 4.89648H6.11852C4.71695 4.89847 3.37335 5.45611 2.38229 6.44717C1.39123 7.43823 0.833587 8.78183 0.831604 10.1834V82.0232C0.833588 83.4248 1.39123 84.7684 2.38229 85.7595C3.37335 86.7505 4.71695 87.3082 6.11852 87.3101H51.8348C53.2363 87.3082 54.5799 86.7505 55.571 85.7595C56.5621 84.7684 57.1197 83.4248 57.1217 82.0232V10.1834C57.1197 8.78183 56.5621 7.43824 55.571 6.44718C54.5799 5.45612 53.2363 4.89847 51.8348 4.89648ZM56.4997 82.0232C56.4982 83.26 56.0062 84.4456 55.1317 85.3202C54.2572 86.1947 53.0715 86.6866 51.8348 86.6881H6.11852C4.88177 86.6866 3.6961 86.1947 2.82158 85.3202C1.94706 84.4456 1.4551 83.26 1.45359 82.0232V10.1834C1.4551 8.94665 1.94706 7.76098 2.82158 6.88646C3.6961 6.01194 4.88177 5.51998 6.11852 5.51847H51.8348C53.0715 5.51998 54.2572 6.01194 55.1317 6.88646C56.0062 7.76098 56.4982 8.94665 56.4997 10.1834V82.0232Z" fill="#3F3D56"/>
        <path d="M149.798 87.3101H104.082C102.68 87.3086 101.336 86.751 100.345 85.7599C99.3541 84.7687 98.7966 83.4249 98.795 82.0232V10.1834C98.7966 8.78171 99.3541 7.43787 100.345 6.44673C101.336 5.45558 102.68 4.89806 104.082 4.89648H149.798C151.2 4.89806 152.544 5.45558 153.535 6.44673C154.526 7.43787 155.084 8.78171 155.085 10.1834V82.0232C155.084 83.4249 154.526 84.7687 153.535 85.7599C152.544 86.751 151.2 87.3086 149.798 87.3101ZM104.082 5.51847C102.845 5.51987 101.659 6.0118 100.785 6.88634C99.9103 7.76088 99.4184 8.94661 99.417 10.1834V82.0232C99.4184 83.26 99.9103 84.4457 100.785 85.3203C101.659 86.1948 102.845 86.6868 104.082 86.6881H149.798C151.035 86.6868 152.221 86.1948 153.095 85.3203C153.97 84.4457 154.462 83.26 154.463 82.0232V10.1834C154.462 8.94661 153.97 7.76088 153.095 6.88634C152.221 6.0118 151.035 5.51987 149.798 5.51847H104.082Z" fill="#3F3D56"/>
        <path d="M84.1782 46.5697H65.2075C65.1251 46.5697 65.046 46.537 64.9876 46.4787C64.9293 46.4203 64.8965 46.3412 64.8965 46.2587C64.8965 46.1763 64.9293 46.0972 64.9876 46.0388C65.046 45.9805 65.1251 45.9478 65.2075 45.9478H84.1782C84.2607 45.9478 84.3398 45.9805 84.3981 46.0388C84.4565 46.0972 84.4892 46.1763 84.4892 46.2587C84.4892 46.3412 84.4565 46.4203 84.3981 46.4787C84.3398 46.537 84.2607 46.5697 84.1782 46.5697Z" fill="#3F3D56"/>
        <path d="M80.1355 55.0992C80.0704 55.0993 80.007 55.0789 79.9541 55.041C79.9012 55.003 79.8615 54.9495 79.8407 54.8878C79.8199 54.8261 79.8189 54.7595 79.8379 54.6973C79.857 54.635 79.8951 54.5803 79.9468 54.5409L89.8438 47.0011C89.9581 46.914 90.0507 46.8018 90.1144 46.673C90.1782 46.5443 90.2113 46.4026 90.2113 46.259C90.2113 46.1153 90.1782 45.9736 90.1144 45.8449C90.0507 45.7162 89.9581 45.6039 89.8438 45.5169L79.9469 37.9771C79.8814 37.927 79.8384 37.8531 79.8274 37.7714C79.8164 37.6897 79.8383 37.607 79.8882 37.5415C79.9382 37.4759 80.0121 37.4329 80.0938 37.4218C80.1754 37.4107 80.2581 37.4325 80.3238 37.4823L90.2207 45.0221C90.4111 45.1672 90.5655 45.3543 90.6718 45.5688C90.7781 45.7834 90.8333 46.0196 90.8333 46.259C90.8333 46.4984 90.7781 46.7346 90.6718 46.9491C90.5655 47.1636 90.4111 47.3507 90.2207 47.4958L80.3238 55.0356C80.2697 55.077 80.2036 55.0993 80.1355 55.0992Z" fill="#3F3D56"/>
        <path d="M181.831 46.5697H162.86C162.777 46.5697 162.698 46.537 162.64 46.4787C162.582 46.4203 162.549 46.3412 162.549 46.2587C162.549 46.1763 162.582 46.0972 162.64 46.0388C162.698 45.9805 162.777 45.9478 162.86 45.9478H181.831C181.913 45.9478 181.992 45.9805 182.051 46.0388C182.109 46.0972 182.142 46.1763 182.142 46.2587C182.142 46.3412 182.109 46.4203 182.051 46.4787C181.992 46.537 181.913 46.5697 181.831 46.5697Z" fill="#3F3D56"/>
        <path d="M177.788 55.0992C177.723 55.0993 177.659 55.0789 177.607 55.041C177.554 55.003 177.514 54.9495 177.493 54.8878C177.472 54.8261 177.471 54.7595 177.49 54.6973C177.509 54.635 177.547 54.5803 177.599 54.5409L187.496 47.0011C187.61 46.914 187.703 46.8018 187.767 46.673C187.831 46.5443 187.864 46.4026 187.864 46.259C187.864 46.1153 187.831 45.9736 187.767 45.8449C187.703 45.7162 187.61 45.6039 187.496 45.5169L177.599 37.9771C177.534 37.927 177.491 37.8531 177.48 37.7714C177.469 37.6897 177.491 37.607 177.541 37.5415C177.591 37.4759 177.665 37.4329 177.746 37.4218C177.828 37.4107 177.911 37.4325 177.976 37.4823L187.873 45.0221C188.064 45.1672 188.218 45.3543 188.324 45.5688C188.43 45.7834 188.486 46.0196 188.486 46.259C188.486 46.4984 188.43 46.7346 188.324 46.9491C188.218 47.1636 188.064 47.3507 187.873 47.4958L177.976 55.0356C177.922 55.077 177.856 55.0993 177.788 55.0992Z" fill="#3F3D56"/>
        <path d="M132.538 33.9745H121.653C120.952 33.9737 120.28 33.695 119.785 33.1994C119.289 32.7038 119.01 32.0319 119.01 31.3311V20.7572C119.01 20.0564 119.289 19.3845 119.785 18.8889C120.28 18.3933 120.952 18.1146 121.653 18.1138H132.538C133.239 18.1146 133.911 18.3933 134.406 18.8889C134.902 19.3845 135.181 20.0564 135.181 20.7572V31.3311C135.181 32.0319 134.902 32.7038 134.406 33.1994C133.911 33.695 133.239 33.9737 132.538 33.9745Z" fill="#6C63FF"/>
        <path d="M134.559 33.8193C134.519 33.8193 134.478 33.8113 134.44 33.7956C134.403 33.78 134.368 33.7571 134.34 33.7281L119.412 18.8004C119.383 18.7715 119.36 18.7372 119.344 18.6995C119.329 18.6618 119.321 18.6213 119.321 18.5805C119.321 18.5397 119.329 18.4992 119.344 18.4615C119.36 18.4238 119.383 18.3895 119.412 18.3606C119.441 18.3317 119.475 18.3088 119.513 18.2932C119.55 18.2776 119.591 18.2695 119.632 18.2695C119.673 18.2695 119.713 18.2776 119.751 18.2932C119.788 18.3088 119.823 18.3317 119.852 18.3606L134.779 33.2884C134.823 33.3319 134.852 33.3873 134.864 33.4476C134.876 33.5079 134.87 33.5704 134.847 33.6272C134.823 33.6841 134.783 33.7326 134.732 33.7668C134.681 33.801 134.621 33.8192 134.559 33.8193Z" fill="#485AFF"/>
        <path d="M119.632 33.8192C119.57 33.8192 119.51 33.801 119.459 33.7668C119.408 33.7326 119.368 33.6841 119.344 33.6272C119.321 33.5704 119.315 33.5079 119.327 33.4476C119.339 33.3873 119.368 33.3319 119.412 33.2884L134.34 18.3606C134.368 18.3317 134.403 18.3088 134.44 18.2932C134.478 18.2776 134.519 18.2695 134.559 18.2695C134.6 18.2695 134.641 18.2776 134.678 18.2932C134.716 18.3088 134.75 18.3317 134.779 18.3606C134.808 18.3895 134.831 18.4238 134.847 18.4615C134.862 18.4992 134.87 18.5397 134.87 18.5805C134.87 18.6213 134.862 18.6618 134.847 18.6995C134.831 18.7372 134.808 18.7715 134.779 18.8004L119.852 33.7281C119.823 33.7571 119.788 33.78 119.751 33.7956C119.713 33.8113 119.673 33.8193 119.632 33.8192Z" fill="#485AFF"/>
        <path d="M137.047 50.3017H116.833C115.802 50.3017 114.813 49.8922 114.084 49.1631C113.355 48.4341 112.945 47.4453 112.945 46.4143C112.945 45.3833 113.355 44.3945 114.084 43.6655C114.813 42.9364 115.802 42.5269 116.833 42.5269H137.047C138.078 42.5269 139.067 42.9364 139.796 43.6655C140.525 44.3945 140.935 45.3833 140.935 46.4143C140.935 47.4453 140.525 48.4341 139.796 49.1631C139.067 49.8922 138.078 50.3017 137.047 50.3017ZM116.833 43.1488C115.967 43.1488 115.136 43.4929 114.524 44.1053C113.911 44.7177 113.567 45.5482 113.567 46.4143C113.567 47.2803 113.911 48.1109 114.524 48.7233C115.136 49.3357 115.967 49.6797 116.833 49.6797H137.047C137.913 49.6797 138.744 49.3357 139.356 48.7233C139.969 48.1109 140.313 47.2803 140.313 46.4143C140.313 45.5482 139.969 44.7177 139.356 44.1053C138.744 43.4929 137.913 43.1488 137.047 43.1488H116.833Z" fill="#3F3D56"/>
        <path d="M137.047 62.1196H116.833C115.802 62.1196 114.813 61.71 114.084 60.981C113.355 60.252 112.945 59.2632 112.945 58.2322C112.945 57.2012 113.355 56.2124 114.084 55.4833C114.813 54.7543 115.802 54.3447 116.833 54.3447H137.047C138.078 54.3447 139.067 54.7543 139.796 55.4833C140.525 56.2124 140.935 57.2012 140.935 58.2322C140.935 59.2632 140.525 60.252 139.796 60.981C139.067 61.71 138.078 62.1196 137.047 62.1196ZM116.833 54.9667C115.967 54.9667 115.136 55.3108 114.524 55.9231C113.911 56.5355 113.567 57.3661 113.567 58.2322C113.567 59.0982 113.911 59.9288 114.524 60.5412C115.136 61.1536 115.967 61.4976 116.833 61.4976H137.047C137.913 61.4976 138.744 61.1536 139.356 60.5412C139.969 59.9288 140.313 59.0982 140.313 58.2322C140.313 57.3661 139.969 56.5355 139.356 55.9231C138.744 55.3108 137.913 54.9667 137.047 54.9667H116.833Z" fill="#3F3D56"/>
        <path d="M137.047 73.9375H116.833C115.802 73.9375 114.813 73.5279 114.084 72.7989C113.355 72.0698 112.945 71.081 112.945 70.05C112.945 69.019 113.355 68.0302 114.084 67.3012C114.813 66.5722 115.802 66.1626 116.833 66.1626H137.047C138.078 66.1626 139.067 66.5722 139.796 67.3012C140.525 68.0302 140.935 69.019 140.935 70.05C140.935 71.081 140.525 72.0698 139.796 72.7989C139.067 73.5279 138.078 73.9375 137.047 73.9375ZM116.833 66.7846C115.967 66.7846 115.136 67.1286 114.524 67.741C113.911 68.3534 113.567 69.184 113.567 70.05C113.567 70.9161 113.911 71.7467 114.524 72.3591C115.136 72.9714 115.967 73.3155 116.833 73.3155H137.047C137.913 73.3155 138.744 72.9714 139.356 72.3591C139.969 71.7467 140.313 70.9161 140.313 70.05C140.313 69.184 139.969 68.3534 139.356 67.741C138.744 67.1286 137.913 66.7846 137.047 66.7846H116.833Z" fill="#3F3D56"/>
        <path d="M243.666 0.855889L198.567 8.34085C197.185 8.57228 195.95 9.34239 195.135 10.4823C194.32 11.6223 193.989 13.0391 194.217 14.422L205.979 85.2924C206.21 86.6748 206.981 87.9089 208.12 88.7243C209.26 89.5398 210.677 89.8699 212.06 89.6424L257.16 82.1574C258.542 81.926 259.776 81.1559 260.591 80.016C261.407 78.876 261.737 77.4592 261.509 76.0763L249.747 5.20586C249.516 3.82353 248.746 2.58936 247.606 1.77394C246.466 0.958517 245.049 0.628372 243.666 0.855889ZM260.896 76.1781C261.097 77.3984 260.806 78.6486 260.086 79.6545C259.367 80.6604 258.277 81.3399 257.058 81.5438L211.958 89.0288C210.738 89.2298 209.488 88.9386 208.482 88.2191C207.476 87.4995 206.797 86.4104 206.593 85.1906L194.831 14.3202C194.63 13.0999 194.921 11.8497 195.64 10.8438C196.36 9.83787 197.449 9.15842 198.669 8.95445L243.768 1.46949C244.988 1.26848 246.239 1.55969 247.244 2.27922C248.25 2.99876 248.93 4.08788 249.134 5.3077L260.896 76.1781Z" fill="#3F3D56"/>
        <path d="M235.722 29.9164L215.78 33.2261C214.763 33.3949 213.72 33.1527 212.882 32.5529C212.043 31.953 211.477 31.0447 211.308 30.0276C211.14 29.0105 211.382 27.968 211.982 27.1294C212.581 26.2908 213.49 25.7249 214.507 25.5561L234.449 22.2464C235.466 22.0783 236.508 22.3208 237.346 22.9207C238.184 23.5205 238.749 24.4286 238.918 25.4453C239.087 26.462 238.845 27.5041 238.245 28.3425C237.646 29.1809 236.738 29.747 235.722 29.9164ZM214.609 26.1697C213.754 26.3117 212.992 26.7871 212.488 27.4915C211.984 28.1958 211.781 29.0714 211.923 29.9256C212.064 30.7798 212.54 31.5428 213.244 32.0466C213.948 32.5505 214.824 32.754 215.678 32.6125L235.62 29.3028C236.474 29.1608 237.237 28.6854 237.741 27.981C238.244 27.2767 238.448 26.4011 238.306 25.5469C238.164 24.6927 237.689 23.9297 236.985 23.4258C236.28 22.922 235.405 22.7185 234.551 22.86L214.609 26.1697Z" fill="#CCCCCC"/>
        <path d="M238.064 44.0291L218.122 47.3388C217.618 47.4227 217.103 47.4065 216.605 47.2912C216.108 47.1759 215.638 46.9636 215.222 46.6666C214.807 46.3696 214.454 45.9937 214.184 45.5603C213.914 45.1268 213.732 44.6444 213.648 44.1406C213.565 43.6368 213.581 43.1215 213.697 42.624C213.812 42.1266 214.025 41.6568 214.322 41.2415C214.619 40.8262 214.996 40.4736 215.429 40.2037C215.863 39.9339 216.345 39.7521 216.849 39.6688L236.791 36.3591C237.808 36.1903 238.851 36.4325 239.689 37.0323C240.528 37.6321 241.094 38.5405 241.262 39.5576C241.431 40.5747 241.189 41.6172 240.589 42.4558C239.989 43.2943 239.081 43.8603 238.064 44.0291ZM216.951 40.2824C216.097 40.4245 215.334 40.9 214.831 41.6043C214.327 42.3086 214.124 43.1841 214.266 44.0382C214.407 44.8923 214.883 45.6551 215.587 46.159C216.291 46.6629 217.166 46.8665 218.02 46.7252L237.962 43.4155C238.816 43.2733 239.579 42.7978 240.082 42.0935C240.586 41.3893 240.789 40.5138 240.647 39.6597C240.506 38.8056 240.03 38.0427 239.326 37.5389C238.622 37.035 237.747 36.8314 236.893 36.9727L216.951 40.2824Z" fill="#CCCCCC"/>
        <path d="M240.406 58.142L220.464 61.4516C219.96 61.5356 219.445 61.5194 218.948 61.4041C218.45 61.2887 217.98 61.0765 217.565 60.7795C217.149 60.4825 216.796 60.1066 216.526 59.6732C216.256 59.2397 216.074 58.7573 215.99 58.2535C215.907 57.7497 215.923 57.2344 216.039 56.7369C216.155 56.2395 216.367 55.7697 216.664 55.3544C216.962 54.9391 217.338 54.5865 217.771 54.3166C218.205 54.0468 218.687 53.865 219.191 53.7817L239.133 50.472C240.15 50.3039 241.192 50.5464 242.03 51.1463C242.868 51.7461 243.434 52.6542 243.602 53.6709C243.771 54.6876 243.529 55.7297 242.93 56.5681C242.33 57.4065 241.423 57.9726 240.406 58.142ZM219.293 54.3953C218.87 54.4654 218.465 54.6182 218.101 54.8449C217.737 55.0716 217.421 55.3679 217.171 55.7167C216.922 56.0655 216.743 56.46 216.646 56.8778C216.549 57.2955 216.535 57.7283 216.606 58.1514C216.676 58.5745 216.829 58.9797 217.056 59.3437C217.282 59.7077 217.579 60.0234 217.928 60.2729C218.276 60.5224 218.671 60.7007 219.089 60.7977C219.507 60.8946 219.939 60.9084 220.362 60.838L240.304 57.5284C240.728 57.4583 241.133 57.3056 241.497 57.0789C241.861 56.8522 242.177 56.556 242.427 56.2072C242.676 55.8583 242.855 55.4637 242.952 55.0459C243.049 54.6281 243.063 54.1953 242.993 53.7721C242.922 53.3489 242.769 52.9438 242.543 52.5797C242.316 52.2157 242.019 51.8999 241.67 51.6504C241.321 51.4009 240.927 51.2226 240.509 51.1257C240.091 51.0288 239.658 51.0152 239.235 51.0856L219.293 54.3953Z" fill="#CCCCCC"/>
        <path d="M242.748 72.2548L222.807 75.5644C222.303 75.648 221.788 75.6316 221.29 75.5161C220.793 75.4006 220.324 75.1883 219.908 74.8912C219.493 74.5942 219.14 74.2184 218.871 73.7851C218.601 73.3518 218.419 72.8695 218.335 72.3659C218.251 71.8623 218.268 71.3472 218.383 70.8499C218.499 70.3526 218.711 69.883 219.008 69.4678C219.305 69.0526 219.681 68.6999 220.114 68.43C220.548 68.16 221.03 67.9781 221.534 67.8945L241.475 64.5848C242.492 64.4167 243.534 64.6592 244.372 65.2591C245.21 65.8589 245.776 66.767 245.945 67.7837C246.113 68.8004 245.871 69.8425 245.272 70.6809C244.673 71.5193 243.765 72.0854 242.748 72.2548ZM221.635 68.5081C221.212 68.5783 220.807 68.7311 220.443 68.9579C220.079 69.1846 219.764 69.4809 219.514 69.8296C219.01 70.534 218.807 71.4097 218.949 72.2641C219.09 73.1185 219.566 73.8815 220.27 74.3854C220.975 74.8892 221.85 75.0926 222.705 74.9508L242.647 71.6412C243.501 71.4992 244.264 71.0238 244.767 70.3194C245.271 69.6151 245.474 68.7395 245.333 67.8853C245.191 67.031 244.716 66.2681 244.011 65.7642C243.307 65.2604 242.432 65.0568 241.577 65.1984L221.635 68.5081Z" fill="#CCCCCC"/>
        <path d="M250.123 9.36601L195.206 18.4803C195.165 18.4872 195.124 18.486 195.084 18.4768C195.044 18.4677 195.007 18.4507 194.973 18.427C194.94 18.4032 194.912 18.3731 194.89 18.3384C194.868 18.3037 194.854 18.265 194.847 18.2246C194.84 18.1843 194.842 18.143 194.851 18.1031C194.86 18.0632 194.877 18.0256 194.901 17.9924C194.925 17.9591 194.955 17.9309 194.99 17.9093C195.025 17.8878 195.063 17.8733 195.104 17.8668L250.021 8.75242C250.061 8.74558 250.102 8.74677 250.142 8.75593C250.182 8.76509 250.22 8.78203 250.253 8.80579C250.287 8.82954 250.315 8.85965 250.337 8.89437C250.358 8.92909 250.373 8.96775 250.38 9.00812C250.386 9.0485 250.385 9.08981 250.376 9.12967C250.366 9.16953 250.349 9.20716 250.325 9.24041C250.301 9.27366 250.271 9.30187 250.236 9.32343C250.202 9.34498 250.163 9.35945 250.123 9.36601Z" fill="#3F3D56"/>
        <path d="M201.171 14.8144C202.374 14.8144 203.348 13.8397 203.348 12.6374C203.348 11.4351 202.374 10.4604 201.171 10.4604C199.969 10.4604 198.995 11.4351 198.995 12.6374C198.995 13.8397 199.969 14.8144 201.171 14.8144Z" fill="#6C63FF"/>
        <path d="M244.533 4.17964L238.397 5.198C238.316 5.2112 238.233 5.19166 238.166 5.14366C238.099 5.09567 238.054 5.02314 238.041 4.94195C238.027 4.86077 238.046 4.77755 238.094 4.71053C238.142 4.64351 238.214 4.59817 238.295 4.58441L244.431 3.56605C244.513 3.55283 244.596 3.57236 244.663 3.62035C244.729 3.66835 244.775 3.74089 244.788 3.82209C244.802 3.90328 244.782 3.98652 244.734 4.05354C244.687 4.12056 244.614 4.16591 244.533 4.17964Z" fill="#3F3D56"/>
        <path d="M244.839 6.02045L238.703 7.03881C238.621 7.05201 238.538 7.03247 238.471 6.98447C238.405 6.93648 238.359 6.86394 238.346 6.78275C238.333 6.70157 238.352 6.61836 238.4 6.55134C238.447 6.48432 238.52 6.43897 238.601 6.42522L244.737 5.40686C244.818 5.39366 244.901 5.4132 244.968 5.4612C245.035 5.50919 245.08 5.58172 245.093 5.66291C245.107 5.74409 245.088 5.82731 245.04 5.89432C244.992 5.96134 244.92 6.0067 244.839 6.02045Z" fill="#3F3D56"/>
        <path d="M245.144 7.86162L239.008 8.87998C238.968 8.88681 238.927 8.88561 238.887 8.87645C238.847 8.86728 238.809 8.85034 238.776 8.82658C238.742 8.80282 238.714 8.77272 238.692 8.73801C238.671 8.70329 238.656 8.66464 238.649 8.62426C238.643 8.58389 238.644 8.5426 238.653 8.50274C238.663 8.46288 238.68 8.42526 238.704 8.39201C238.727 8.35876 238.758 8.33055 238.792 8.30899C238.827 8.28744 238.866 8.27296 238.906 8.26639L245.042 7.24803C245.083 7.24119 245.124 7.24238 245.164 7.25154C245.204 7.26069 245.241 7.27764 245.275 7.30139C245.308 7.32515 245.336 7.35525 245.358 7.38997C245.38 7.42469 245.394 7.46335 245.401 7.50373C245.408 7.54411 245.406 7.58541 245.397 7.62527C245.388 7.66513 245.371 7.70277 245.347 7.73601C245.323 7.76926 245.293 7.79748 245.258 7.81903C245.223 7.84058 245.185 7.85505 245.144 7.86162Z" fill="#3F3D56"/>
        <path d="M40.639 51.7013H17.3143C16.6135 51.7006 15.9416 51.4218 15.446 50.9262C14.9504 50.4306 14.6717 49.7587 14.6709 49.0579V25.4223C14.6717 24.7214 14.9504 24.0495 15.446 23.5539C15.9416 23.0583 16.6135 22.7796 17.3143 22.7788H40.639C41.3398 22.7796 42.0117 23.0583 42.5073 23.5539C43.0029 24.0495 43.2816 24.7214 43.2824 25.4223V49.0579C43.2816 49.7587 43.0029 50.4306 42.5073 50.9262C42.0117 51.4218 41.3398 51.7006 40.639 51.7013Z" fill="#6C63FF"/>
        <path d="M38.9285 69.2724H18.7138C17.6828 69.2724 16.694 68.8629 15.965 68.1338C15.2359 67.4048 14.8264 66.416 14.8264 65.385C14.8264 64.354 15.2359 63.3652 15.965 62.6362C16.694 61.9071 17.6828 61.4976 18.7138 61.4976H38.9285C39.9595 61.4976 40.9483 61.9071 41.6773 62.6362C42.4063 63.3652 42.8159 64.354 42.8159 65.385C42.8159 66.416 42.4063 67.4048 41.6773 68.1338C40.9483 68.8629 39.9595 69.2724 38.9285 69.2724ZM18.7138 62.1195C17.8478 62.1195 17.0172 62.4636 16.4048 63.076C15.7924 63.6884 15.4484 64.5189 15.4484 65.385C15.4484 66.251 15.7924 67.0816 16.4048 67.694C17.0172 68.3064 17.8478 68.6504 18.7138 68.6504H38.9285C39.7945 68.6504 40.6251 68.3064 41.2375 67.694C41.8499 67.0816 42.1939 66.251 42.1939 65.385C42.1939 64.5189 41.8499 63.6884 41.2375 63.076C40.6251 62.4636 39.7945 62.1195 38.9285 62.1195H18.7138Z" fill="#3F3D56"/>
        <path d="M42.6604 51.2346C42.6196 51.2347 42.5791 51.2266 42.5414 51.211C42.5036 51.1954 42.4693 51.1724 42.4405 51.1435L15.0729 23.7759C15.0438 23.7471 15.0206 23.7128 15.0047 23.675C14.9888 23.6372 14.9806 23.5966 14.9805 23.5556C14.9803 23.5146 14.9883 23.474 15.004 23.4361C15.0196 23.3982 15.0426 23.3637 15.0716 23.3347C15.1006 23.3057 15.135 23.2828 15.1729 23.2671C15.2108 23.2515 15.2515 23.2435 15.2925 23.2437C15.3335 23.2438 15.3741 23.252 15.4119 23.2679C15.4497 23.2838 15.484 23.307 15.5128 23.3362L42.8803 50.7037C42.9238 50.7472 42.9534 50.8026 42.9654 50.863C42.9774 50.9233 42.9713 50.9858 42.9477 51.0426C42.9242 51.0994 42.8843 51.148 42.8332 51.1822C42.782 51.2163 42.7219 51.2346 42.6604 51.2346Z" fill="#485AFF"/>
        <path d="M15.2929 51.2346C15.2314 51.2346 15.1712 51.2163 15.1201 51.1822C15.069 51.148 15.0291 51.0994 15.0056 51.0426C14.982 50.9858 14.9759 50.9233 14.9879 50.863C14.9999 50.8026 15.0295 50.7472 15.0729 50.7037L42.4405 23.3362C42.4693 23.307 42.5036 23.2838 42.5414 23.2679C42.5792 23.252 42.6198 23.2438 42.6608 23.2437C42.7018 23.2435 42.7424 23.2515 42.7804 23.2671C42.8183 23.2828 42.8527 23.3057 42.8817 23.3347C42.9107 23.3637 42.9337 23.3982 42.9493 23.4361C42.965 23.474 42.9729 23.5146 42.9728 23.5556C42.9727 23.5966 42.9644 23.6372 42.9486 23.675C42.9327 23.7128 42.9095 23.7471 42.8803 23.7759L15.5128 51.1435C15.4839 51.1724 15.4497 51.1954 15.4119 51.211C15.3742 51.2266 15.3337 51.2346 15.2929 51.2346Z" fill="#485AFF"/>
        <path d="M255.553 83.0153C255.697 82.5486 255.737 82.056 255.67 81.5722C255.603 81.0884 255.431 80.6252 255.166 80.2151C254.9 79.8051 254.548 79.4582 254.134 79.199C253.72 78.9397 253.255 78.7743 252.77 78.7145L236.805 60.0601L233.082 63.9696L248.983 81.856C248.937 82.677 249.193 83.4865 249.704 84.1311C250.214 84.7758 250.944 85.2108 251.753 85.3537C252.563 85.4966 253.397 85.3375 254.098 84.9065C254.798 84.4756 255.316 83.8027 255.553 83.0153Z" fill="#A0616A"/>
        <path d="M241.43 63.99L235.723 68.1606C235.561 68.2793 235.375 68.3616 235.178 68.4018C234.981 68.4421 234.778 68.4395 234.582 68.3941C234.386 68.3487 234.202 68.2615 234.043 68.1387C233.883 68.0158 233.753 67.8601 233.659 67.6821L230.38 61.4449C229.777 60.6107 229.53 59.5717 229.693 58.5557C229.855 57.5396 230.414 56.6294 231.246 56.0247C232.079 55.42 233.117 55.1701 234.134 55.3298C235.15 55.4895 236.062 56.0458 236.669 56.8767L241.601 61.8778C241.742 62.021 241.851 62.193 241.919 62.382C241.988 62.571 242.015 62.7726 241.999 62.973C241.983 63.1735 241.924 63.3681 241.825 63.5436C241.727 63.7191 241.592 63.8714 241.43 63.99Z" fill="#6C63FF"/>
        <path d="M230.418 51.5267C234.637 51.5267 238.057 48.1069 238.057 43.8884C238.057 39.6698 234.637 36.25 230.418 36.25C226.2 36.25 222.78 39.6698 222.78 43.8884C222.78 48.1069 226.2 51.5267 230.418 51.5267Z" fill="#A0616A"/>
        <path d="M233.736 78.349C233.657 78.349 233.578 78.3424 233.5 78.3292L220.097 76.0733C219.775 76.0195 219.481 75.8541 219.268 75.6059C219.054 75.3576 218.935 75.0424 218.93 74.7151C218.89 71.6489 219.119 63.9087 222.123 58.271C223.062 56.5088 224.61 55.1478 226.478 54.4412C228.346 53.7346 230.406 53.7304 232.277 54.4295C234.148 55.1286 235.701 56.4833 236.647 58.2417C237.594 60.0001 237.869 62.0424 237.423 63.9889C236.417 68.3194 235.649 72.7016 235.121 77.1159C235.08 77.4551 234.917 77.7677 234.662 77.9949C234.407 78.222 234.078 78.348 233.736 78.349Z" fill="#2F2E41"/>
        <path d="M205.637 53.1988C205.675 53.3666 205.7 53.5371 205.711 53.7088L219.071 61.4159L222.318 59.5465L225.78 64.0784L220.353 67.9465C219.914 68.2589 219.386 68.4208 218.848 68.4077C218.31 68.3945 217.79 68.2072 217.368 67.8737L203.592 57.0058C202.97 57.2359 202.293 57.2713 201.651 57.1073C201.008 56.9432 200.431 56.5875 199.996 56.0874C199.561 55.5874 199.288 54.9667 199.214 54.3079C199.14 53.6491 199.269 52.9834 199.583 52.3994C199.896 51.8154 200.38 51.3407 200.97 51.0385C201.561 50.7364 202.229 50.621 202.886 50.7078C203.543 50.7946 204.158 51.0794 204.65 51.5243C205.141 51.9693 205.485 52.5534 205.637 53.1988Z" fill="#A0616A"/>
        <path d="M219.254 60.6453C219.295 60.4482 219.377 60.2622 219.495 60.0998C219.614 59.9375 219.766 59.8026 219.942 59.7045L226.073 56.2765C226.887 55.6479 227.918 55.3679 228.938 55.498C229.959 55.628 230.886 56.1574 231.517 56.9702C232.148 57.7829 232.431 58.8127 232.304 59.8337C232.177 60.8547 231.65 61.7836 230.839 62.4168L225.951 67.4926C225.812 67.6375 225.643 67.7506 225.455 67.8242C225.268 67.8978 225.067 67.9302 224.867 67.9192C224.666 67.9082 224.47 67.8541 224.292 67.7604C224.114 67.6668 223.958 67.536 223.835 67.3767L219.517 61.7807C219.394 61.6215 219.307 61.4377 219.262 61.2417C219.216 61.0458 219.214 60.8423 219.254 60.6453Z" fill="#6C63FF"/>
        <path d="M212.786 146.855H208.973L208.076 132.197L212.787 132.149L212.786 146.855Z" fill="#A0616A"/>
        <path d="M213.758 150.551L201.465 150.55V150.395C201.465 149.767 201.588 149.144 201.829 148.564C202.069 147.983 202.422 147.456 202.866 147.011C203.31 146.567 203.838 146.215 204.419 145.974C204.999 145.734 205.621 145.61 206.25 145.61L213.759 145.61L213.758 150.551Z" fill="#2F2E41"/>
        <path d="M249.173 146.855H245.36L243.546 132.149H249.173L249.173 146.855Z" fill="#A0616A"/>
        <path d="M250.145 150.551L237.851 150.55V150.395C237.851 149.767 237.975 149.144 238.215 148.564C238.456 147.983 238.808 147.456 239.253 147.011C239.697 146.567 240.224 146.215 240.805 145.974C241.385 145.734 242.008 145.61 242.636 145.61L250.145 145.61L250.145 150.551Z" fill="#2F2E41"/>
        <path d="M244.838 139.229C244.548 139.228 244.265 139.138 244.028 138.97C243.791 138.802 243.612 138.565 243.515 138.292L231.365 103.576C231.318 103.443 231.236 103.326 231.128 103.236C231.02 103.145 230.889 103.087 230.75 103.065C230.61 103.043 230.468 103.06 230.337 103.113C230.207 103.167 230.093 103.254 230.009 103.367L218.157 119.17C218.064 119.293 217.999 119.435 217.965 119.585L214.189 136.434C214.121 136.734 213.957 137.003 213.722 137.2C213.487 137.397 213.193 137.512 212.887 137.526L208.363 137.732C208.168 137.742 207.973 137.71 207.791 137.639C207.609 137.568 207.444 137.46 207.307 137.321C207.17 137.182 207.063 137.017 206.993 136.834C206.923 136.652 206.892 136.457 206.902 136.263L207.691 120.883C207.94 115.908 209.222 111.039 211.455 106.586C216.42 96.6857 219.292 85.8687 219.894 74.8094L219.903 74.6372L233.821 76.8515L235.91 79.7443C236.843 81.0494 237.852 82.2973 238.935 83.4811C241.595 86.366 242.394 90.2243 242.596 92.9528C242.856 96.3062 243.331 99.6395 244.017 102.932L250.919 136.85C250.971 137.042 250.981 137.244 250.948 137.441C250.916 137.637 250.842 137.825 250.731 137.991C250.62 138.156 250.475 138.296 250.306 138.402C250.136 138.507 249.947 138.575 249.749 138.6L245.017 139.218C244.958 139.225 244.898 139.229 244.838 139.229Z" fill="#2F2E41"/>
        <path d="M238.864 38.5867C238.257 36.7474 237.81 34.8594 237.525 32.9436C237.436 31.8282 237.722 30.6281 238.534 29.8585C240.054 28.4182 242.637 29.1042 244.227 30.4673C246.524 32.4372 247.67 35.4645 248.103 38.4598C248.536 41.4551 248.346 44.501 248.45 47.5257C248.554 50.5503 248.987 53.6603 250.529 56.2645C252.071 58.8686 254.932 60.8675 257.951 60.6459C259.169 60.58 260.326 60.0898 261.22 59.2602C261.66 58.8424 261.992 58.3255 262.19 57.7526C262.388 57.1798 262.446 56.5678 262.359 55.968C263.902 58.7304 263.12 62.4743 260.819 64.6459C258.518 66.8175 254.978 67.4314 251.953 66.5042C248.928 65.5771 246.438 63.2522 244.951 60.4596C243.464 57.6669 242.919 54.4408 242.998 51.2778C243.059 48.8489 243.472 46.4001 243.061 44.0054C242.651 41.6106 241.152 39.1791 238.789 38.6151L238.864 38.5867Z" fill="#2F2E41"/>
        <path d="M228.251 41.7352C227.848 43.0812 226.307 43.9112 224.92 43.6836C223.534 43.4559 222.394 42.3141 221.973 40.9737C221.592 39.6047 221.748 38.142 222.408 36.884C222.773 36.13 223.282 35.4552 223.907 34.8982C224.533 34.3413 225.262 33.9131 226.053 33.6382C226.848 33.3746 227.695 33.306 228.523 33.4382C229.35 33.5704 230.134 33.8996 230.807 34.3979C230.879 34.0956 231.03 33.8177 231.245 33.5931C231.46 33.3685 231.73 33.2052 232.029 33.12C232.631 32.9578 233.266 32.9672 233.863 33.147C235.583 33.6371 237.073 34.7212 238.068 36.2064C239.051 37.6871 239.702 39.3633 239.974 41.1195C240.444 43.7532 240.271 46.6311 238.791 48.8601C237.312 51.0891 234.286 52.4053 231.831 51.3426C231.678 50.56 232.041 49.772 232.46 49.0939C232.88 48.4157 233.377 47.7551 233.538 46.9741C233.699 46.1932 233.39 45.2379 232.635 44.9825C231.99 44.7646 231.303 45.1176 230.624 45.1602C230.239 45.1845 229.854 45.1068 229.508 44.9352C229.161 44.7636 228.867 44.5039 228.652 44.1823C228.438 43.8608 228.313 43.4885 228.288 43.103C228.263 42.7175 228.34 42.3322 228.511 41.9858L228.251 41.7352Z" fill="#2F2E41"/>
        <path d="M284.401 150.753H165.912C165.83 150.753 165.751 150.721 165.692 150.662C165.634 150.604 165.601 150.525 165.601 150.442C165.601 150.36 165.634 150.281 165.692 150.222C165.751 150.164 165.83 150.131 165.912 150.131H284.401C284.484 150.131 284.563 150.164 284.621 150.222C284.68 150.281 284.712 150.36 284.712 150.442C284.712 150.525 284.68 150.604 284.621 150.662C284.563 150.721 284.484 150.753 284.401 150.753Z" fill="#CCCCCC"/>
    </g>
    <defs>
        <clipPath id="clip0_14_273">
            <rect width="295.337" height="150" fill="white" transform="translate(0.831604 0.78418)"/>
        </clipPath>
    </defs>
</svg>