<svg width="228" height="32" viewBox="0 0 228 32" fill="none" xmlns="http://www.w3.org/2000/svg">
    <g clip-path="url(#clip0_63_42)">
        <path d="M16.3299 7.77763L32.6808 17.086V9.31868L16.3195 0L0 9.32902V17.1067L16.3299 7.77763Z" fill="#007AFF"/>
        <path d="M30.0655 26.4464L32.6808 24.9261V20.1581L16.3195 10.8291L0 20.1581V24.9467L2.6153 26.4464L16.3195 18.6067L30.0655 26.4464Z" fill="#007AFF"/>
        <path d="M16.33 29.6312L20.4831 31.9996L27.3038 28.1211L16.3195 21.8535L5.37708 28.1211L12.1978 31.9996L16.33 29.6312Z" fill="#007AFF"/>
        <path d="M55.366 8.0895H59.2884V24.95H55.366V18.2781H48.9099V24.95H44.9875V8.0895H48.9099V14.7133H55.366V8.0895ZM68.2782 12.2083C71.153 12.2083 74.9536 14.352 74.9536 18.7357C74.9536 23.1435 71.153 25.1909 68.2782 25.1909C65.4034 25.1909 61.6028 23.1435 61.6028 18.7357C61.6028 14.352 65.4034 12.2083 68.2782 12.2083ZM68.2782 15.5563C66.8165 15.5563 65.3303 16.6643 65.3303 18.7357C65.3303 20.7349 66.8165 21.8429 68.2782 21.8429C69.74 21.8429 71.2505 20.7349 71.2505 18.7357C71.2505 16.6643 69.74 15.5563 68.2782 15.5563ZM83.3344 12.2083C86.2092 12.2083 90.0097 14.352 90.0097 18.7357C90.0097 23.1435 86.2092 25.1909 83.3344 25.1909C80.4596 25.1909 76.659 23.1435 76.659 18.7357C76.659 14.352 80.4596 12.2083 83.3344 12.2083ZM83.3344 15.5563C81.8726 15.5563 80.3865 16.6643 80.3865 18.7357C80.3865 20.7349 81.8726 21.8429 83.3344 21.8429C84.7961 21.8429 86.3066 20.7349 86.3066 18.7357C86.3066 16.6643 84.7961 15.5563 83.3344 15.5563ZM100.875 24.95L96.7582 20.0846L95.9542 20.9276V24.95H92.1049V20.3977V7.9209H95.9542V16.2789L99.5355 12.4251H104.14L99.1214 17.6518L105.261 24.95H100.875ZM113.008 16.3752C112.667 15.5081 112.155 15.2191 111.595 15.2191C111.083 15.2191 110.572 15.5081 110.572 15.9899C110.572 16.4475 110.864 16.7125 111.425 16.9051L113.032 17.4591C114.835 18.1095 116.663 18.7598 116.663 21.2648C116.663 23.7939 114.104 25.2391 111.473 25.2391C109.11 25.2391 106.893 23.8661 106.357 21.6743L109.378 20.7349C109.695 21.4334 110.255 22.2283 111.473 22.2283C112.302 22.2283 112.838 21.6984 112.838 21.2166C112.838 20.9758 112.643 20.6626 112.034 20.4218L110.547 19.8919C108.014 18.9766 106.82 17.7 106.82 15.9176C106.82 13.5812 109.013 12.2083 111.425 12.2083C113.885 12.2083 115.517 13.533 116.248 15.5322L113.008 16.3752ZM137.249 8.0895V24.95H133.205V16.8088L129.721 24.95H126.335L122.899 16.857V24.95H118.855V8.0895H122.729L128.064 19.7955L133.375 8.0895H137.249ZM149.065 12.4251H152.914V24.95H149.065V23.6975C148.894 24.1311 147.749 25.1909 145.8 25.1909C142.901 25.1909 139.563 23.1435 139.563 18.6635C139.563 14.352 142.901 12.2083 145.8 12.2083C147.749 12.2083 148.894 13.3163 149.065 13.5812V12.4251ZM146.361 21.8429C147.944 21.8429 149.235 20.759 149.235 18.6635C149.235 16.6402 147.944 15.5563 146.361 15.5563C144.704 15.5563 143.291 16.6643 143.291 18.6635C143.291 20.7349 144.704 21.8429 146.361 21.8429ZM161.417 16.3752C161.076 15.5081 160.564 15.2191 160.004 15.2191C159.492 15.2191 158.981 15.5081 158.981 15.9899C158.981 16.4475 159.273 16.7125 159.833 16.9051L161.441 17.4591C163.244 18.1095 165.071 18.7598 165.071 21.2648C165.071 23.7939 162.513 25.2391 159.882 25.2391C157.519 25.2391 155.302 23.8661 154.766 21.6743L157.787 20.7349C158.103 21.4334 158.664 22.2283 159.882 22.2283C160.71 22.2283 161.246 21.6984 161.246 21.2166C161.246 20.9758 161.051 20.6626 160.442 20.4218L158.956 19.8919C156.422 18.9766 155.229 17.7 155.229 15.9176C155.229 13.5812 157.421 12.2083 159.833 12.2083C162.294 12.2083 163.926 13.533 164.657 15.5322L161.417 16.3752ZM173.208 21.7706C173.89 21.7706 174.378 21.6743 174.914 21.5298V24.6851C174.378 24.9259 173.501 25.0945 172.209 25.0945C170.09 25.0945 168.311 24.396 168.311 20.5422V15.5563H166.533V12.4251H168.311V9.48652H172.161V12.4251H174.865V15.5563H172.161V20.5422C172.161 21.0962 172.307 21.7706 173.208 21.7706ZM183.246 12.2083C186.121 12.2083 190.14 14.352 189.336 20.0123H180.493C180.931 21.313 182.076 21.9874 183.611 21.9874C185.17 21.9874 185.658 21.6502 186.535 21.2889L188.654 23.3121C187.534 24.396 186.023 25.1909 183.465 25.1909C180.322 25.1909 176.57 23.0472 176.57 18.7357C176.57 14.352 180.371 12.2083 183.246 12.2083ZM183.246 15.46C182.149 15.46 181.029 16.0862 180.542 17.3387H185.926C185.536 16.0862 184.342 15.46 183.246 15.46ZM199.666 12.2324C200.007 12.2324 200.348 12.2324 200.665 12.3046V15.9417C200.373 15.8694 200.032 15.8694 199.788 15.8694C197.449 15.8694 195.573 17.5314 195.378 19.8437V24.95H191.529V12.4251H195.378V15.484C195.963 13.6053 197.425 12.2324 199.666 12.2324ZM204.417 25.0705C203.248 25.0705 202.249 24.0829 202.249 22.9268C202.249 21.7465 203.248 20.759 204.417 20.759C205.611 20.759 206.61 21.7465 206.61 22.9268C206.61 24.0829 205.611 25.0705 204.417 25.0705ZM212.554 7.9209V11.1244H208.705V7.9209H212.554ZM212.554 12.4251V24.95H208.705V12.4251H212.554ZM221.325 12.2083C224.199 12.2083 228 14.352 228 18.7357C228 23.1435 224.199 25.1909 221.325 25.1909C218.45 25.1909 214.649 23.1435 214.649 18.7357C214.649 14.352 218.45 12.2083 221.325 12.2083ZM221.325 15.5563C219.863 15.5563 218.377 16.6643 218.377 18.7357C218.377 20.7349 219.863 21.8429 221.325 21.8429C222.786 21.8429 224.297 20.7349 224.297 18.7357C224.297 16.6643 222.786 15.5563 221.325 15.5563Z" fill="white"/>
    </g>
    <defs>
        <clipPath id="clip0_63_42">
            <rect width="228" height="32" fill="white"/>
        </clipPath>
    </defs>
</svg>